<svg width="1440" height="120" viewBox="0 0 1440 120" fill="none" xmlns="http://www.w3.org/2000/svg">
<rect x="0.25" y="0.25" width="39.5" height="39.5" fill="#8194F2" stroke="white" stroke-width="0.5"/>
<rect x="40.25" y="40.25" width="39.5" height="39.5" fill="#8194F2" stroke="white" stroke-width="0.5"/>
<rect x="0.25" y="40.25" width="39.5" height="39.5" fill="#CDD5FD" stroke="white" stroke-width="0.5"/>
<rect x="40.25" y="0.25" width="39.5" height="39.5" fill="#CDD5FD" stroke="white" stroke-width="0.5"/>
<rect x="40.25" y="80.25" width="39.5" height="39.5" fill="#CDD5FD" stroke="white" stroke-width="0.5"/>
<rect x="0.25" y="80.25" width="39.5" height="39.5" fill="#8194F2" stroke="white" stroke-width="0.5"/>
<rect x="80.25" y="0.25" width="39.5" height="39.5" fill="#8194F2" stroke="white" stroke-width="0.5"/>
<rect x="120.25" y="40.25" width="39.5" height="39.5" fill="#8194F2" stroke="white" stroke-width="0.5"/>
<rect x="80.25" y="40.25" width="39.5" height="39.5" fill="#CDD5FD" stroke="white" stroke-width="0.5"/>
<rect x="120.25" y="0.25" width="39.5" height="39.5" fill="#CDD5FD" stroke="white" stroke-width="0.5"/>
<rect x="120.25" y="80.25" width="39.5" height="39.5" fill="#CDD5FD" stroke="white" stroke-width="0.5"/>
<rect x="80.25" y="80.25" width="39.5" height="39.5" fill="#8194F2" stroke="white" stroke-width="0.5"/>
<rect x="160.25" y="0.25" width="39.5" height="39.5" fill="#8194F2" stroke="white" stroke-width="0.5"/>
<rect x="200.25" y="40.25" width="39.5" height="39.5" fill="#8194F2" stroke="white" stroke-width="0.5"/>
<rect x="160.25" y="40.25" width="39.5" height="39.5" fill="#CDD5FD" stroke="white" stroke-width="0.5"/>
<rect x="200.25" y="0.25" width="39.5" height="39.5" fill="#CDD5FD" stroke="white" stroke-width="0.5"/>
<rect x="200.25" y="80.25" width="39.5" height="39.5" fill="#CDD5FD" stroke="white" stroke-width="0.5"/>
<rect x="160.25" y="80.25" width="39.5" height="39.5" fill="#8194F2" stroke="white" stroke-width="0.5"/>
<rect x="240.25" y="0.25" width="39.5" height="39.5" fill="#8194F2" stroke="white" stroke-width="0.5"/>
<rect x="280.25" y="40.25" width="39.5" height="39.5" fill="#8194F2" stroke="white" stroke-width="0.5"/>
<rect x="240.25" y="40.25" width="39.5" height="39.5" fill="#CDD5FD" stroke="white" stroke-width="0.5"/>
<rect x="280.25" y="0.25" width="39.5" height="39.5" fill="#CDD5FD" stroke="white" stroke-width="0.5"/>
<rect x="280.25" y="80.25" width="39.5" height="39.5" fill="#CDD5FD" stroke="white" stroke-width="0.5"/>
<rect x="240.25" y="80.25" width="39.5" height="39.5" fill="#8194F2" stroke="white" stroke-width="0.5"/>
<rect x="320.25" y="0.25" width="39.5" height="39.5" fill="#8194F2" stroke="white" stroke-width="0.5"/>
<rect x="360.25" y="40.25" width="39.5" height="39.5" fill="#8194F2" stroke="white" stroke-width="0.5"/>
<rect x="320.25" y="40.25" width="39.5" height="39.5" fill="#CDD5FD" stroke="white" stroke-width="0.5"/>
<rect x="360.25" y="0.25" width="39.5" height="39.5" fill="#CDD5FD" stroke="white" stroke-width="0.5"/>
<rect x="360.25" y="80.25" width="39.5" height="39.5" fill="#CDD5FD" stroke="white" stroke-width="0.5"/>
<rect x="320.25" y="80.25" width="39.5" height="39.5" fill="#8194F2" stroke="white" stroke-width="0.5"/>
<rect x="400.25" y="0.25" width="39.5" height="39.5" fill="#8194F2" stroke="white" stroke-width="0.5"/>
<rect x="440.25" y="40.25" width="39.5" height="39.5" fill="#8194F2" stroke="white" stroke-width="0.5"/>
<rect x="400.25" y="40.25" width="39.5" height="39.5" fill="#CDD5FD" stroke="white" stroke-width="0.5"/>
<rect x="440.25" y="0.25" width="39.5" height="39.5" fill="#CDD5FD" stroke="white" stroke-width="0.5"/>
<rect x="440.25" y="80.25" width="39.5" height="39.5" fill="#CDD5FD" stroke="white" stroke-width="0.5"/>
<rect x="400.25" y="80.25" width="39.5" height="39.5" fill="#8194F2" stroke="white" stroke-width="0.5"/>
<rect x="480.25" y="0.25" width="39.5" height="39.5" fill="#8194F2" stroke="white" stroke-width="0.5"/>
<rect x="520.25" y="40.25" width="39.5" height="39.5" fill="#8194F2" stroke="white" stroke-width="0.5"/>
<rect x="480.25" y="40.25" width="39.5" height="39.5" fill="#CDD5FD" stroke="white" stroke-width="0.5"/>
<rect x="520.25" y="0.25" width="39.5" height="39.5" fill="#CDD5FD" stroke="white" stroke-width="0.5"/>
<rect x="520.25" y="80.25" width="39.5" height="39.5" fill="#CDD5FD" stroke="white" stroke-width="0.5"/>
<rect x="480.25" y="80.25" width="39.5" height="39.5" fill="#8194F2" stroke="white" stroke-width="0.5"/>
<rect x="560.25" y="0.25" width="39.5" height="39.5" fill="#8194F2" stroke="white" stroke-width="0.5"/>
<rect x="600.25" y="40.25" width="39.5" height="39.5" fill="#8194F2" stroke="white" stroke-width="0.5"/>
<rect x="560.25" y="40.25" width="39.5" height="39.5" fill="#CDD5FD" stroke="white" stroke-width="0.5"/>
<rect x="600.25" y="0.25" width="39.5" height="39.5" fill="#CDD5FD" stroke="white" stroke-width="0.5"/>
<rect x="600.25" y="80.25" width="39.5" height="39.5" fill="#CDD5FD" stroke="white" stroke-width="0.5"/>
<rect x="560.25" y="80.25" width="39.5" height="39.5" fill="#8194F2" stroke="white" stroke-width="0.5"/>
<rect x="640.25" y="0.25" width="39.5" height="39.5" fill="#8194F2" stroke="white" stroke-width="0.5"/>
<rect x="680.25" y="40.25" width="39.5" height="39.5" fill="#8194F2" stroke="white" stroke-width="0.5"/>
<rect x="640.25" y="40.25" width="39.5" height="39.5" fill="#CDD5FD" stroke="white" stroke-width="0.5"/>
<rect x="680.25" y="0.25" width="39.5" height="39.5" fill="#CDD5FD" stroke="white" stroke-width="0.5"/>
<rect x="680.25" y="80.25" width="39.5" height="39.5" fill="#CDD5FD" stroke="white" stroke-width="0.5"/>
<rect x="640.25" y="80.25" width="39.5" height="39.5" fill="#8194F2" stroke="white" stroke-width="0.5"/>
<rect x="720.25" y="0.25" width="39.5" height="39.5" fill="#8194F2" stroke="white" stroke-width="0.5"/>
<rect x="760.25" y="40.25" width="39.5" height="39.5" fill="#8194F2" stroke="white" stroke-width="0.5"/>
<rect x="720.25" y="40.25" width="39.5" height="39.5" fill="#CDD5FD" stroke="white" stroke-width="0.5"/>
<rect x="760.25" y="0.25" width="39.5" height="39.5" fill="#CDD5FD" stroke="white" stroke-width="0.5"/>
<rect x="760.25" y="80.25" width="39.5" height="39.5" fill="#CDD5FD" stroke="white" stroke-width="0.5"/>
<rect x="720.25" y="80.25" width="39.5" height="39.5" fill="#8194F2" stroke="white" stroke-width="0.5"/>
<rect x="800.25" y="0.25" width="39.5" height="39.5" fill="#8194F2" stroke="white" stroke-width="0.5"/>
<rect x="840.25" y="40.25" width="39.5" height="39.5" fill="#8194F2" stroke="white" stroke-width="0.5"/>
<rect x="800.25" y="40.25" width="39.5" height="39.5" fill="#CDD5FD" stroke="white" stroke-width="0.5"/>
<rect x="840.25" y="0.25" width="39.5" height="39.5" fill="#CDD5FD" stroke="white" stroke-width="0.5"/>
<rect x="840.25" y="80.25" width="39.5" height="39.5" fill="#CDD5FD" stroke="white" stroke-width="0.5"/>
<rect x="800.25" y="80.25" width="39.5" height="39.5" fill="#8194F2" stroke="white" stroke-width="0.5"/>
<rect x="880.25" y="0.25" width="39.5" height="39.5" fill="#8194F2" stroke="white" stroke-width="0.5"/>
<rect x="920.25" y="40.25" width="39.5" height="39.5" fill="#8194F2" stroke="white" stroke-width="0.5"/>
<rect x="880.25" y="40.25" width="39.5" height="39.5" fill="#CDD5FD" stroke="white" stroke-width="0.5"/>
<rect x="920.25" y="0.25" width="39.5" height="39.5" fill="#CDD5FD" stroke="white" stroke-width="0.5"/>
<rect x="920.25" y="80.25" width="39.5" height="39.5" fill="#CDD5FD" stroke="white" stroke-width="0.5"/>
<rect x="880.25" y="80.25" width="39.5" height="39.5" fill="#8194F2" stroke="white" stroke-width="0.5"/>
<rect x="960.25" y="0.25" width="39.5" height="39.5" fill="#8194F2" stroke="white" stroke-width="0.5"/>
<rect x="1000.25" y="40.25" width="39.5" height="39.5" fill="#8194F2" stroke="white" stroke-width="0.5"/>
<rect x="960.25" y="40.25" width="39.5" height="39.5" fill="#CDD5FD" stroke="white" stroke-width="0.5"/>
<rect x="1000.25" y="0.25" width="39.5" height="39.5" fill="#CDD5FD" stroke="white" stroke-width="0.5"/>
<rect x="1000.25" y="80.25" width="39.5" height="39.5" fill="#CDD5FD" stroke="white" stroke-width="0.5"/>
<rect x="960.25" y="80.25" width="39.5" height="39.5" fill="#8194F2" stroke="white" stroke-width="0.5"/>
<rect x="1040.25" y="0.25" width="39.5" height="39.5" fill="#8194F2" stroke="white" stroke-width="0.5"/>
<rect x="1080.25" y="40.25" width="39.5" height="39.5" fill="#8194F2" stroke="white" stroke-width="0.5"/>
<rect x="1040.25" y="40.25" width="39.5" height="39.5" fill="#CDD5FD" stroke="white" stroke-width="0.5"/>
<rect x="1080.25" y="0.25" width="39.5" height="39.5" fill="#CDD5FD" stroke="white" stroke-width="0.5"/>
<rect x="1080.25" y="80.25" width="39.5" height="39.5" fill="#CDD5FD" stroke="white" stroke-width="0.5"/>
<rect x="1040.25" y="80.25" width="39.5" height="39.5" fill="#8194F2" stroke="white" stroke-width="0.5"/>
<rect x="1120.25" y="0.25" width="39.5" height="39.5" fill="#8194F2" stroke="white" stroke-width="0.5"/>
<rect x="1160.25" y="40.25" width="39.5" height="39.5" fill="#8194F2" stroke="white" stroke-width="0.5"/>
<rect x="1120.25" y="40.25" width="39.5" height="39.5" fill="#CDD5FD" stroke="white" stroke-width="0.5"/>
<rect x="1160.25" y="0.25" width="39.5" height="39.5" fill="#CDD5FD" stroke="white" stroke-width="0.5"/>
<rect x="1160.25" y="80.25" width="39.5" height="39.5" fill="#CDD5FD" stroke="white" stroke-width="0.5"/>
<rect x="1120.25" y="80.25" width="39.5" height="39.5" fill="#8194F2" stroke="white" stroke-width="0.5"/>
<rect x="1200.25" y="0.25" width="39.5" height="39.5" fill="#8194F2" stroke="white" stroke-width="0.5"/>
<rect x="1240.25" y="40.25" width="39.5" height="39.5" fill="#8194F2" stroke="white" stroke-width="0.5"/>
<rect x="1200.25" y="40.25" width="39.5" height="39.5" fill="#CDD5FD" stroke="white" stroke-width="0.5"/>
<rect x="1240.25" y="0.25" width="39.5" height="39.5" fill="#CDD5FD" stroke="white" stroke-width="0.5"/>
<rect x="1240.25" y="80.25" width="39.5" height="39.5" fill="#CDD5FD" stroke="white" stroke-width="0.5"/>
<rect x="1200.25" y="80.25" width="39.5" height="39.5" fill="#8194F2" stroke="white" stroke-width="0.5"/>
<rect x="1280.25" y="0.25" width="39.5" height="39.5" fill="#8194F2" stroke="white" stroke-width="0.5"/>
<rect x="1320.25" y="40.25" width="39.5" height="39.5" fill="#8194F2" stroke="white" stroke-width="0.5"/>
<rect x="1280.25" y="40.25" width="39.5" height="39.5" fill="#CDD5FD" stroke="white" stroke-width="0.5"/>
<rect x="1320.25" y="0.25" width="39.5" height="39.5" fill="#CDD5FD" stroke="white" stroke-width="0.5"/>
<rect x="1320.25" y="80.25" width="39.5" height="39.5" fill="#CDD5FD" stroke="white" stroke-width="0.5"/>
<rect x="1280.25" y="80.25" width="39.5" height="39.5" fill="#8194F2" stroke="white" stroke-width="0.5"/>
<rect x="1360.25" y="0.25" width="39.5" height="39.5" fill="#8194F2" stroke="white" stroke-width="0.5"/>
<rect x="1400.25" y="40.25" width="39.5" height="39.5" fill="#8194F2" stroke="white" stroke-width="0.5"/>
<rect x="1360.25" y="40.25" width="39.5" height="39.5" fill="#CDD5FD" stroke="white" stroke-width="0.5"/>
<rect x="1400.25" y="0.25" width="39.5" height="39.5" fill="#CDD5FD" stroke="white" stroke-width="0.5"/>
<rect x="1400.25" y="80.25" width="39.5" height="39.5" fill="#CDD5FD" stroke="white" stroke-width="0.5"/>
<rect x="1360.25" y="80.25" width="39.5" height="39.5" fill="#8194F2" stroke="white" stroke-width="0.5"/>
</svg>
