<?xml version="1.0" encoding="UTF-8"?>
<svg id="OBJECTS" xmlns="http://www.w3.org/2000/svg" viewBox="0 0 500 480.72">
  <defs>
    <style>
      .cls-1 {
        fill: #ffc0e3;
      }

      .cls-2 {
        fill: #99582b;
      }

      .cls-3 {
        fill: #ffa6d2;
      }

      .cls-4 {
        fill: #f7941f;
      }

      .cls-5 {
        fill: #ee8cbd;
      }

      .cls-6 {
        fill: #ffc90a;
      }
    </style>
  </defs>
  <rect class="cls-1" x="230.74" y="19.23" width="19.23" height="19.23"/>
  <rect class="cls-1" x="211.51" y="38.46" width="19.23" height="19.23"/>
  <rect class="cls-3" x="230.74" y="38.46" width="19.23" height="19.23"/>
  <rect class="cls-3" x="57.69" y="57.69" width="19.23" height="19.23"/>
  <rect class="cls-1" x="76.91" y="57.69" width="19.23" height="19.23"/>
  <rect class="cls-3" x="211.51" y="57.69" width="19.23" height="19.23"/>
  <rect class="cls-3" x="230.74" y="57.69" width="19.23" height="19.23"/>
  <rect class="cls-5" x="57.69" y="76.91" width="19.23" height="19.23"/>
  <rect class="cls-3" x="76.91" y="76.91" width="19.23" height="19.23"/>
  <rect class="cls-3" x="96.14" y="76.91" width="19.23" height="19.23"/>
  <rect class="cls-1" x="115.37" y="76.91" width="19.23" height="19.23"/>
  <rect class="cls-1" x="211.51" y="76.91" width="19.23" height="19.23"/>
  <rect class="cls-3" x="230.74" y="76.91" width="19.23" height="19.23"/>
  <rect class="cls-5" x="76.91" y="96.14" width="19.23" height="19.23"/>
  <rect class="cls-3" x="96.14" y="96.14" width="19.23" height="19.23"/>
  <rect class="cls-3" x="115.37" y="96.14" width="19.23" height="19.23"/>
  <rect class="cls-1" x="134.6" y="96.14" width="19.23" height="19.23"/>
  <rect class="cls-3" x="211.51" y="96.14" width="19.23" height="19.23"/>
  <rect class="cls-3" x="230.74" y="96.14" width="19.23" height="19.23"/>
  <rect class="cls-5" x="76.91" y="115.37" width="19.23" height="19.23"/>
  <rect class="cls-3" x="96.14" y="115.37" width="19.23" height="19.23"/>
  <rect class="cls-3" x="115.37" y="115.37" width="19.23" height="19.23"/>
  <rect class="cls-3" x="134.6" y="115.37" width="19.23" height="19.23"/>
  <rect class="cls-1" x="153.83" y="115.37" width="19.23" height="19.23"/>
  <rect class="cls-1" x="211.51" y="115.37" width="19.23" height="19.23"/>
  <rect class="cls-3" x="230.74" y="115.37" width="19.23" height="19.23"/>
  <rect class="cls-5" x="96.14" y="134.6" width="19.23" height="19.23"/>
  <rect class="cls-3" x="115.37" y="134.6" width="19.23" height="19.23"/>
  <rect class="cls-3" x="134.6" y="134.6" width="19.23" height="19.23"/>
  <rect class="cls-3" x="153.83" y="134.6" width="19.23" height="19.23"/>
  <rect class="cls-1" x="173.06" y="134.6" width="19.23" height="19.23"/>
  <rect class="cls-3" x="211.51" y="134.6" width="19.23" height="19.23"/>
  <rect class="cls-3" x="230.74" y="134.6" width="19.23" height="19.23"/>
  <rect class="cls-5" x="115.37" y="153.83" width="19.23" height="19.23"/>
  <rect class="cls-3" x="134.6" y="153.83" width="19.23" height="19.23"/>
  <rect class="cls-3" x="153.83" y="153.83" width="19.23" height="19.23"/>
  <rect class="cls-3" x="173.06" y="153.83" width="19.23" height="19.23"/>
  <rect class="cls-1" x="211.51" y="153.83" width="19.23" height="19.23"/>
  <rect class="cls-3" x="230.74" y="153.83" width="19.23" height="19.23"/>
  <rect class="cls-5" x="134.6" y="173.06" width="19.23" height="19.23"/>
  <rect class="cls-5" x="153.83" y="173.06" width="19.23" height="19.23"/>
  <rect class="cls-3" x="173.06" y="173.06" width="19.23" height="19.23"/>
  <rect class="cls-3" x="192.29" y="173.06" width="19.23" height="19.23"/>
  <rect class="cls-1" x="230.74" y="173.06" width="19.23" height="19.23"/>
  <rect class="cls-5" x="173.06" y="192.29" width="19.23" height="19.23"/>
  <rect class="cls-5" x="192.29" y="192.29" width="19.23" height="19.23"/>
  <rect class="cls-5" x="230.74" y="192.29" width="19.23" height="19.23"/>
  <rect class="cls-1" x="38.46" y="211.52" width="19.23" height="19.23"/>
  <rect class="cls-3" x="57.69" y="211.52" width="19.23" height="19.23"/>
  <rect class="cls-1" x="76.91" y="211.52" width="19.23" height="19.23"/>
  <rect class="cls-3" x="96.14" y="211.52" width="19.23" height="19.23"/>
  <rect class="cls-1" x="115.37" y="211.52" width="19.23" height="19.23"/>
  <rect class="cls-3" x="134.6" y="211.52" width="19.23" height="19.23"/>
  <rect class="cls-1" x="153.83" y="211.52" width="19.23" height="19.23"/>
  <rect class="cls-3" x="211.51" y="211.52" width="19.23" height="19.23"/>
  <rect class="cls-4" x="230.74" y="211.52" width="19.23" height="19.23"/>
  <rect class="cls-3" x="19.23" y="230.74" width="19.23" height="19.23"/>
  <rect class="cls-3" x="38.46" y="230.74" width="19.23" height="19.23"/>
  <rect class="cls-3" x="57.69" y="230.74" width="19.23" height="19.23"/>
  <rect class="cls-3" x="76.91" y="230.74" width="19.23" height="19.23"/>
  <rect class="cls-3" x="96.14" y="230.74" width="19.23" height="19.23"/>
  <rect class="cls-3" x="115.37" y="230.74" width="19.23" height="19.23"/>
  <rect class="cls-3" x="134.6" y="230.74" width="19.23" height="19.23"/>
  <rect class="cls-3" x="153.83" y="230.74" width="19.23" height="19.23"/>
  <rect class="cls-3" x="173.06" y="230.74" width="19.23" height="19.23"/>
  <rect class="cls-3" x="192.29" y="230.74" width="19.23" height="19.23"/>
  <rect class="cls-4" x="211.51" y="230.74" width="19.23" height="19.23"/>
  <rect class="cls-2" x="230.74" y="230.74" width="19.23" height="19.23"/>
  <rect class="cls-5" x="19.23" y="249.97" width="19.23" height="19.23"/>
  <rect class="cls-3" y="230.74" width="19.23" height="19.23"/>
  <rect class="cls-5" y="249.97" width="19.23" height="19.23"/>
  <rect class="cls-3" x="38.46" y="249.97" width="19.23" height="19.23"/>
  <rect class="cls-3" x="57.69" y="249.97" width="19.23" height="19.23"/>
  <rect class="cls-3" x="76.91" y="249.97" width="19.23" height="19.23"/>
  <rect class="cls-3" x="96.14" y="249.97" width="19.23" height="19.23"/>
  <rect class="cls-3" x="115.37" y="249.97" width="19.23" height="19.23"/>
  <rect class="cls-3" x="134.6" y="249.97" width="19.23" height="19.23"/>
  <rect class="cls-3" x="153.83" y="249.97" width="19.23" height="19.23"/>
  <rect class="cls-5" x="173.06" y="249.97" width="19.23" height="19.23"/>
  <rect class="cls-5" x="192.29" y="249.97" width="19.23" height="19.23"/>
  <rect class="cls-4" x="211.51" y="249.97" width="19.23" height="19.23"/>
  <rect class="cls-6" x="230.74" y="249.97" width="19.23" height="19.23"/>
  <rect class="cls-5" x="38.46" y="269.2" width="19.23" height="19.23"/>
  <rect class="cls-3" x="57.69" y="269.2" width="19.23" height="19.23"/>
  <rect class="cls-5" x="76.91" y="269.2" width="19.23" height="19.23"/>
  <rect class="cls-3" x="96.14" y="269.2" width="19.23" height="19.23"/>
  <rect class="cls-5" x="115.37" y="269.2" width="19.23" height="19.23"/>
  <rect class="cls-3" x="134.6" y="269.2" width="19.23" height="19.23"/>
  <rect class="cls-5" x="153.83" y="269.2" width="19.23" height="19.23"/>
  <rect class="cls-3" x="211.51" y="269.2" width="19.23" height="19.23"/>
  <rect class="cls-4" x="230.74" y="269.2" width="19.23" height="19.23"/>
  <rect class="cls-1" x="173.06" y="288.43" width="19.23" height="19.23"/>
  <rect class="cls-5" x="192.29" y="288.43" width="19.23" height="19.23"/>
  <rect class="cls-5" x="230.74" y="288.43" width="19.23" height="19.23"/>
  <rect class="cls-1" x="134.6" y="307.66" width="19.23" height="19.23"/>
  <rect class="cls-3" x="153.83" y="307.66" width="19.23" height="19.23"/>
  <rect class="cls-3" x="173.06" y="307.66" width="19.23" height="19.23"/>
  <rect class="cls-5" x="192.29" y="307.66" width="19.23" height="19.23"/>
  <rect class="cls-1" x="230.74" y="307.66" width="19.23" height="19.23"/>
  <rect class="cls-1" x="115.37" y="326.89" width="19.23" height="19.23"/>
  <rect class="cls-3" x="134.6" y="326.89" width="19.23" height="19.23"/>
  <rect class="cls-3" x="153.83" y="326.89" width="19.23" height="19.23"/>
  <rect class="cls-5" x="173.06" y="326.89" width="19.23" height="19.23"/>
  <rect class="cls-1" x="211.51" y="326.89" width="19.23" height="19.23"/>
  <rect class="cls-3" x="230.74" y="326.89" width="19.23" height="19.23"/>
  <rect class="cls-1" x="96.14" y="346.12" width="19.23" height="19.23"/>
  <rect class="cls-3" x="115.37" y="346.12" width="19.23" height="19.23"/>
  <rect class="cls-3" x="134.6" y="346.12" width="19.23" height="19.23"/>
  <rect class="cls-3" x="153.83" y="346.12" width="19.23" height="19.23"/>
  <rect class="cls-5" x="173.06" y="346.12" width="19.23" height="19.23"/>
  <rect class="cls-3" x="211.51" y="346.12" width="19.23" height="19.23"/>
  <rect class="cls-3" x="230.74" y="346.12" width="19.23" height="19.23"/>
  <rect class="cls-1" x="76.91" y="365.34" width="19.23" height="19.23"/>
  <rect class="cls-3" x="96.14" y="365.34" width="19.23" height="19.23"/>
  <rect class="cls-3" x="115.37" y="365.34" width="19.23" height="19.23"/>
  <rect class="cls-3" x="134.6" y="365.34" width="19.23" height="19.23"/>
  <rect class="cls-5" x="153.83" y="365.34" width="19.23" height="19.23"/>
  <rect class="cls-1" x="211.51" y="365.34" width="19.23" height="19.23"/>
  <rect class="cls-3" x="230.74" y="365.34" width="19.23" height="19.23"/>
  <rect class="cls-1" x="76.91" y="384.57" width="19.23" height="19.23"/>
  <rect class="cls-3" x="96.14" y="384.57" width="19.23" height="19.23"/>
  <rect class="cls-3" x="115.37" y="384.57" width="19.23" height="19.23"/>
  <rect class="cls-5" x="134.6" y="384.57" width="19.23" height="19.23"/>
  <rect class="cls-3" x="211.51" y="384.57" width="19.23" height="19.23"/>
  <rect class="cls-3" x="230.74" y="384.57" width="19.23" height="19.23"/>
  <rect class="cls-1" x="57.69" y="403.8" width="19.23" height="19.23"/>
  <rect class="cls-3" x="76.91" y="403.8" width="19.23" height="19.23"/>
  <rect class="cls-5" x="96.14" y="403.8" width="19.23" height="19.23"/>
  <rect class="cls-5" x="115.37" y="403.8" width="19.23" height="19.23"/>
  <rect class="cls-1" x="211.51" y="403.8" width="19.23" height="19.23"/>
  <rect class="cls-3" x="230.74" y="403.8" width="19.23" height="19.23"/>
  <rect class="cls-3" x="57.69" y="423.03" width="19.23" height="19.23"/>
  <rect class="cls-5" x="76.91" y="423.03" width="19.23" height="19.23"/>
  <rect class="cls-3" x="211.51" y="423.03" width="19.23" height="19.23"/>
  <rect class="cls-3" x="230.74" y="423.03" width="19.23" height="19.23"/>
  <rect class="cls-1" x="211.51" y="442.26" width="19.23" height="19.23"/>
  <rect class="cls-3" x="230.74" y="442.26" width="19.23" height="19.23"/>
  <rect class="cls-1" x="230.74" y="461.49" width="19.23" height="19.23"/>
  <rect class="cls-5" x="249.98" y="19.23" width="19.23" height="19.23" transform="translate(519.18 57.69) rotate(180)"/>
  <rect class="cls-1" x="230.74" width="19.23" height="19.23"/>
  <rect class="cls-5" x="249.98" width="19.23" height="19.23" transform="translate(519.18 19.23) rotate(180)"/>
  <rect class="cls-5" x="269.21" y="38.46" width="19.23" height="19.23" transform="translate(557.64 96.14) rotate(180)"/>
  <rect class="cls-3" x="249.98" y="38.46" width="19.23" height="19.23" transform="translate(519.18 96.14) rotate(180)"/>
  <rect class="cls-3" x="423.03" y="57.69" width="19.23" height="19.23" transform="translate(865.3 134.6) rotate(180)"/>
  <rect class="cls-1" x="403.81" y="57.69" width="19.23" height="19.23" transform="translate(826.84 134.6) rotate(180)"/>
  <rect class="cls-3" x="269.21" y="57.69" width="19.23" height="19.23" transform="translate(557.64 134.6) rotate(180)"/>
  <rect class="cls-3" x="249.98" y="57.69" width="19.23" height="19.23" transform="translate(519.18 134.6) rotate(180)"/>
  <rect class="cls-5" x="423.03" y="76.91" width="19.23" height="19.23" transform="translate(865.3 173.06) rotate(180)"/>
  <rect class="cls-3" x="403.81" y="76.91" width="19.23" height="19.23" transform="translate(826.84 173.06) rotate(180)"/>
  <rect class="cls-3" x="384.58" y="76.91" width="19.23" height="19.23" transform="translate(788.38 173.06) rotate(180)"/>
  <rect class="cls-1" x="365.35" y="76.91" width="19.23" height="19.23" transform="translate(749.93 173.06) rotate(180)"/>
  <rect class="cls-5" x="269.21" y="76.91" width="19.23" height="19.23" transform="translate(557.64 173.06) rotate(180)"/>
  <rect class="cls-3" x="249.98" y="76.91" width="19.23" height="19.23" transform="translate(519.18 173.06) rotate(180)"/>
  <rect class="cls-5" x="403.81" y="96.14" width="19.23" height="19.23" transform="translate(826.84 211.52) rotate(180)"/>
  <rect class="cls-3" x="384.58" y="96.14" width="19.23" height="19.23" transform="translate(788.38 211.52) rotate(180)"/>
  <rect class="cls-3" x="365.35" y="96.14" width="19.23" height="19.23" transform="translate(749.93 211.52) rotate(180)"/>
  <rect class="cls-1" x="346.12" y="96.14" width="19.23" height="19.23" transform="translate(711.47 211.52) rotate(180)"/>
  <rect class="cls-3" x="269.21" y="96.14" width="19.23" height="19.23" transform="translate(557.64 211.52) rotate(180)"/>
  <rect class="cls-3" x="249.98" y="96.14" width="19.23" height="19.23" transform="translate(519.18 211.52) rotate(180)"/>
  <rect class="cls-5" x="403.81" y="115.37" width="19.23" height="19.23" transform="translate(826.84 249.97) rotate(180)"/>
  <rect class="cls-3" x="384.58" y="115.37" width="19.23" height="19.23" transform="translate(788.38 249.97) rotate(180)"/>
  <rect class="cls-3" x="365.35" y="115.37" width="19.23" height="19.23" transform="translate(749.93 249.97) rotate(180)"/>
  <rect class="cls-3" x="346.12" y="115.37" width="19.23" height="19.23" transform="translate(711.47 249.97) rotate(180)"/>
  <rect class="cls-1" x="326.89" y="115.37" width="19.23" height="19.23" transform="translate(673.01 249.97) rotate(180)"/>
  <rect class="cls-5" x="269.21" y="115.37" width="19.23" height="19.23" transform="translate(557.64 249.97) rotate(180)"/>
  <rect class="cls-3" x="249.98" y="115.37" width="19.23" height="19.23" transform="translate(519.18 249.97) rotate(180)"/>
  <rect class="cls-5" x="384.58" y="134.6" width="19.23" height="19.23" transform="translate(788.38 288.43) rotate(180)"/>
  <rect class="cls-3" x="365.35" y="134.6" width="19.23" height="19.23" transform="translate(749.93 288.43) rotate(180)"/>
  <rect class="cls-3" x="346.12" y="134.6" width="19.23" height="19.23" transform="translate(711.47 288.43) rotate(180)"/>
  <rect class="cls-3" x="326.89" y="134.6" width="19.23" height="19.23" transform="translate(673.01 288.43) rotate(180)"/>
  <rect class="cls-1" x="307.66" y="134.6" width="19.23" height="19.23" transform="translate(634.55 288.43) rotate(180)"/>
  <rect class="cls-3" x="269.21" y="134.6" width="19.23" height="19.23" transform="translate(557.64 288.43) rotate(180)"/>
  <rect class="cls-3" x="249.98" y="134.6" width="19.23" height="19.23" transform="translate(519.18 288.43) rotate(180)"/>
  <rect class="cls-5" x="365.35" y="153.83" width="19.23" height="19.23" transform="translate(749.93 326.89) rotate(180)"/>
  <rect class="cls-3" x="346.12" y="153.83" width="19.23" height="19.23" transform="translate(711.47 326.89) rotate(180)"/>
  <rect class="cls-3" x="326.89" y="153.83" width="19.23" height="19.23" transform="translate(673.01 326.89) rotate(180)"/>
  <rect class="cls-3" x="307.66" y="153.83" width="19.23" height="19.23" transform="translate(634.55 326.89) rotate(180)"/>
  <rect class="cls-5" x="269.21" y="153.83" width="19.23" height="19.23" transform="translate(557.64 326.89) rotate(180)"/>
  <rect class="cls-3" x="249.98" y="153.83" width="19.23" height="19.23" transform="translate(519.18 326.89) rotate(180)"/>
  <rect class="cls-5" x="346.12" y="173.06" width="19.23" height="19.23" transform="translate(711.47 365.34) rotate(180)"/>
  <rect class="cls-5" x="326.89" y="173.06" width="19.23" height="19.23" transform="translate(673.01 365.34) rotate(180)"/>
  <rect class="cls-3" x="307.66" y="173.06" width="19.23" height="19.23" transform="translate(634.55 365.34) rotate(180)"/>
  <rect class="cls-3" x="288.43" y="173.06" width="19.23" height="19.23" transform="translate(596.1 365.34) rotate(180)"/>
  <rect class="cls-5" x="249.98" y="173.06" width="19.23" height="19.23" transform="translate(519.18 365.34) rotate(180)"/>
  <rect class="cls-5" x="307.66" y="192.29" width="19.23" height="19.23" transform="translate(634.55 403.8) rotate(180)"/>
  <rect class="cls-5" x="288.43" y="192.29" width="19.23" height="19.23" transform="translate(596.1 403.8) rotate(180)"/>
  <rect class="cls-5" x="249.98" y="192.29" width="19.23" height="19.23" transform="translate(519.18 403.8) rotate(180)"/>
  <rect class="cls-1" x="442.26" y="211.52" width="19.23" height="19.23" transform="translate(903.75 442.26) rotate(180)"/>
  <rect class="cls-3" x="423.03" y="211.52" width="19.23" height="19.23" transform="translate(865.3 442.26) rotate(180)"/>
  <rect class="cls-1" x="403.81" y="211.52" width="19.23" height="19.23" transform="translate(826.84 442.26) rotate(180)"/>
  <rect class="cls-3" x="384.58" y="211.52" width="19.23" height="19.23" transform="translate(788.38 442.26) rotate(180)"/>
  <rect class="cls-1" x="365.35" y="211.52" width="19.23" height="19.23" transform="translate(749.93 442.26) rotate(180)"/>
  <rect class="cls-3" x="346.12" y="211.52" width="19.23" height="19.23" transform="translate(711.47 442.26) rotate(180)"/>
  <rect class="cls-1" x="326.89" y="211.52" width="19.23" height="19.23" transform="translate(673.01 442.26) rotate(180)"/>
  <rect class="cls-3" x="269.21" y="211.52" width="19.23" height="19.23" transform="translate(557.64 442.26) rotate(180)"/>
  <rect class="cls-4" x="249.98" y="211.52" width="19.23" height="19.23" transform="translate(519.18 442.26) rotate(180)"/>
  <rect class="cls-3" x="461.49" y="230.74" width="19.23" height="19.23" transform="translate(942.21 480.72) rotate(180)"/>
  <rect class="cls-3" x="442.26" y="230.74" width="19.23" height="19.23" transform="translate(903.75 480.72) rotate(180)"/>
  <rect class="cls-3" x="423.03" y="230.74" width="19.23" height="19.23" transform="translate(865.3 480.72) rotate(180)"/>
  <rect class="cls-3" x="403.81" y="230.74" width="19.23" height="19.23" transform="translate(826.84 480.72) rotate(180)"/>
  <rect class="cls-3" x="384.58" y="230.74" width="19.23" height="19.23" transform="translate(788.38 480.72) rotate(180)"/>
  <rect class="cls-3" x="365.35" y="230.74" width="19.23" height="19.23" transform="translate(749.93 480.72) rotate(180)"/>
  <rect class="cls-3" x="346.12" y="230.74" width="19.23" height="19.23" transform="translate(711.47 480.72) rotate(180)"/>
  <rect class="cls-3" x="326.89" y="230.74" width="19.23" height="19.23" transform="translate(673.01 480.72) rotate(180)"/>
  <rect class="cls-3" x="307.66" y="230.74" width="19.23" height="19.23" transform="translate(634.55 480.72) rotate(180)"/>
  <rect class="cls-3" x="288.43" y="230.74" width="19.23" height="19.23" transform="translate(596.1 480.72) rotate(180)"/>
  <rect class="cls-4" x="269.21" y="230.74" width="19.23" height="19.23" transform="translate(557.64 480.72) rotate(180)"/>
  <rect class="cls-6" x="249.98" y="230.74" width="19.23" height="19.23" transform="translate(519.18 480.72) rotate(180)"/>
  <rect class="cls-5" x="461.49" y="249.97" width="19.23" height="19.23" transform="translate(942.21 519.17) rotate(180)"/>
  <rect class="cls-3" x="480.77" y="230.74" width="19.23" height="19.23" transform="translate(980.77 480.72) rotate(180)"/>
  <rect class="cls-5" x="480.77" y="249.97" width="19.23" height="19.23" transform="translate(980.77 519.17) rotate(180)"/>
  <rect class="cls-3" x="442.26" y="249.97" width="19.23" height="19.23" transform="translate(903.75 519.17) rotate(180)"/>
  <rect class="cls-3" x="423.03" y="249.97" width="19.23" height="19.23" transform="translate(865.3 519.17) rotate(180)"/>
  <rect class="cls-3" x="403.81" y="249.97" width="19.23" height="19.23" transform="translate(826.84 519.17) rotate(180)"/>
  <rect class="cls-3" x="384.58" y="249.97" width="19.23" height="19.23" transform="translate(788.38 519.17) rotate(180)"/>
  <rect class="cls-3" x="365.35" y="249.97" width="19.23" height="19.23" transform="translate(749.93 519.17) rotate(180)"/>
  <rect class="cls-3" x="346.12" y="249.97" width="19.23" height="19.23" transform="translate(711.47 519.17) rotate(180)"/>
  <rect class="cls-3" x="326.89" y="249.97" width="19.23" height="19.23" transform="translate(673.01 519.17) rotate(180)"/>
  <rect class="cls-5" x="307.66" y="249.97" width="19.23" height="19.23" transform="translate(634.55 519.17) rotate(180)"/>
  <rect class="cls-5" x="288.43" y="249.97" width="19.23" height="19.23" transform="translate(596.1 519.17) rotate(180)"/>
  <rect class="cls-4" x="269.21" y="249.97" width="19.23" height="19.23" transform="translate(557.64 519.17) rotate(180)"/>
  <rect class="cls-2" x="249.98" y="249.97" width="19.23" height="19.23" transform="translate(519.18 519.17) rotate(180)"/>
  <rect class="cls-5" x="442.26" y="269.2" width="19.23" height="19.23" transform="translate(903.75 557.63) rotate(180)"/>
  <rect class="cls-3" x="423.03" y="269.2" width="19.23" height="19.23" transform="translate(865.3 557.63) rotate(180)"/>
  <rect class="cls-5" x="403.81" y="269.2" width="19.23" height="19.23" transform="translate(826.84 557.63) rotate(180)"/>
  <rect class="cls-3" x="384.58" y="269.2" width="19.23" height="19.23" transform="translate(788.38 557.63) rotate(180)"/>
  <rect class="cls-5" x="365.35" y="269.2" width="19.23" height="19.23" transform="translate(749.93 557.63) rotate(180)"/>
  <rect class="cls-3" x="346.12" y="269.2" width="19.23" height="19.23" transform="translate(711.47 557.63) rotate(180)"/>
  <rect class="cls-5" x="326.89" y="269.2" width="19.23" height="19.23" transform="translate(673.01 557.63) rotate(180)"/>
  <rect class="cls-3" x="269.21" y="269.2" width="19.23" height="19.23" transform="translate(557.64 557.63) rotate(180)"/>
  <rect class="cls-4" x="249.98" y="269.2" width="19.23" height="19.23" transform="translate(519.18 557.63) rotate(180)"/>
  <rect class="cls-1" x="307.66" y="288.43" width="19.23" height="19.23" transform="translate(634.55 596.09) rotate(180)"/>
  <rect class="cls-5" x="288.43" y="288.43" width="19.23" height="19.23" transform="translate(596.1 596.09) rotate(180)"/>
  <rect class="cls-5" x="249.98" y="288.43" width="19.23" height="19.23" transform="translate(519.18 596.09) rotate(180)"/>
  <rect class="cls-1" x="346.12" y="307.66" width="19.23" height="19.23" transform="translate(711.47 634.55) rotate(180)"/>
  <rect class="cls-3" x="326.89" y="307.66" width="19.23" height="19.23" transform="translate(673.01 634.55) rotate(180)"/>
  <rect class="cls-3" x="307.66" y="307.66" width="19.23" height="19.23" transform="translate(634.55 634.55) rotate(180)"/>
  <rect class="cls-5" x="288.43" y="307.66" width="19.23" height="19.23" transform="translate(596.1 634.55) rotate(180)"/>
  <rect class="cls-5" x="249.98" y="307.66" width="19.23" height="19.23" transform="translate(519.18 634.55) rotate(180)"/>
  <rect class="cls-1" x="365.35" y="326.89" width="19.23" height="19.23" transform="translate(749.93 673) rotate(180)"/>
  <rect class="cls-3" x="346.12" y="326.89" width="19.23" height="19.23" transform="translate(711.47 673) rotate(180)"/>
  <rect class="cls-3" x="326.89" y="326.89" width="19.23" height="19.23" transform="translate(673.01 673) rotate(180)"/>
  <rect class="cls-5" x="307.66" y="326.89" width="19.23" height="19.23" transform="translate(634.55 673) rotate(180)"/>
  <rect class="cls-5" x="269.21" y="326.89" width="19.23" height="19.23" transform="translate(557.64 673) rotate(180)"/>
  <rect class="cls-3" x="249.98" y="326.89" width="19.23" height="19.23" transform="translate(519.18 673) rotate(180)"/>
  <rect class="cls-1" x="384.58" y="346.12" width="19.23" height="19.23" transform="translate(788.38 711.46) rotate(180)"/>
  <rect class="cls-3" x="365.35" y="346.12" width="19.23" height="19.23" transform="translate(749.93 711.46) rotate(180)"/>
  <rect class="cls-3" x="346.12" y="346.12" width="19.23" height="19.23" transform="translate(711.47 711.46) rotate(180)"/>
  <rect class="cls-3" x="326.89" y="346.12" width="19.23" height="19.23" transform="translate(673.01 711.46) rotate(180)"/>
  <rect class="cls-5" x="307.66" y="346.12" width="19.23" height="19.23" transform="translate(634.55 711.46) rotate(180)"/>
  <rect class="cls-3" x="269.21" y="346.12" width="19.23" height="19.23" transform="translate(557.64 711.46) rotate(180)"/>
  <rect class="cls-3" x="249.98" y="346.12" width="19.23" height="19.23" transform="translate(519.18 711.46) rotate(180)"/>
  <rect class="cls-1" x="403.81" y="365.34" width="19.23" height="19.23" transform="translate(826.84 749.92) rotate(180)"/>
  <rect class="cls-3" x="384.58" y="365.34" width="19.23" height="19.23" transform="translate(788.38 749.92) rotate(180)"/>
  <rect class="cls-3" x="365.35" y="365.34" width="19.23" height="19.23" transform="translate(749.93 749.92) rotate(180)"/>
  <rect class="cls-3" x="346.12" y="365.34" width="19.23" height="19.23" transform="translate(711.47 749.92) rotate(180)"/>
  <rect class="cls-5" x="326.89" y="365.34" width="19.23" height="19.23" transform="translate(673.01 749.92) rotate(180)"/>
  <rect class="cls-5" x="269.21" y="365.34" width="19.23" height="19.23" transform="translate(557.64 749.92) rotate(180)"/>
  <rect class="cls-3" x="249.98" y="365.34" width="19.23" height="19.23" transform="translate(519.18 749.92) rotate(180)"/>
  <rect class="cls-1" x="403.81" y="384.57" width="19.23" height="19.23" transform="translate(826.84 788.37) rotate(180)"/>
  <rect class="cls-3" x="384.58" y="384.57" width="19.23" height="19.23" transform="translate(788.38 788.37) rotate(180)"/>
  <rect class="cls-3" x="365.35" y="384.57" width="19.23" height="19.23" transform="translate(749.93 788.37) rotate(180)"/>
  <rect class="cls-5" x="346.12" y="384.57" width="19.23" height="19.23" transform="translate(711.47 788.37) rotate(180)"/>
  <rect class="cls-3" x="269.21" y="384.57" width="19.23" height="19.23" transform="translate(557.64 788.37) rotate(180)"/>
  <rect class="cls-3" x="249.98" y="384.57" width="19.23" height="19.23" transform="translate(519.18 788.37) rotate(180)"/>
  <rect class="cls-1" x="423.03" y="403.8" width="19.23" height="19.23" transform="translate(865.3 826.83) rotate(180)"/>
  <rect class="cls-3" x="403.81" y="403.8" width="19.23" height="19.23" transform="translate(826.84 826.83) rotate(180)"/>
  <rect class="cls-5" x="384.58" y="403.8" width="19.23" height="19.23" transform="translate(788.38 826.83) rotate(180)"/>
  <rect class="cls-5" x="365.35" y="403.8" width="19.23" height="19.23" transform="translate(749.93 826.83) rotate(180)"/>
  <rect class="cls-5" x="269.21" y="403.8" width="19.23" height="19.23" transform="translate(557.64 826.83) rotate(180)"/>
  <rect class="cls-3" x="249.98" y="403.8" width="19.23" height="19.23" transform="translate(519.18 826.83) rotate(180)"/>
  <rect class="cls-3" x="423.03" y="423.03" width="19.23" height="19.23" transform="translate(865.3 865.29) rotate(180)"/>
  <rect class="cls-5" x="403.81" y="423.03" width="19.23" height="19.23" transform="translate(826.84 865.29) rotate(180)"/>
  <rect class="cls-3" x="269.21" y="423.03" width="19.23" height="19.23" transform="translate(557.64 865.29) rotate(180)"/>
  <rect class="cls-3" x="249.98" y="423.03" width="19.23" height="19.23" transform="translate(519.18 865.29) rotate(180)"/>
  <rect class="cls-5" x="269.21" y="442.26" width="19.23" height="19.23" transform="translate(557.64 903.75) rotate(180)"/>
  <rect class="cls-3" x="249.98" y="442.26" width="19.23" height="19.23" transform="translate(519.18 903.75) rotate(180)"/>
  <rect class="cls-5" x="249.98" y="461.49" width="19.23" height="19.23" transform="translate(519.18 942.2) rotate(180)"/>
</svg>