<svg width="192" height="47" viewBox="0 0 192 47" fill="none" xmlns="http://www.w3.org/2000/svg">
<path d="M19.0664 32.4619C19.4108 32.4619 19.7028 32.5892 19.9424 32.8438C20.182 33.0833 20.3018 33.3753 20.3018 33.7197C20.3018 34.0941 20.182 34.401 19.9424 34.6406C19.7028 34.8802 19.4108 35 19.0664 35H2.04102C1.68164 35 1.37467 34.8802 1.12012 34.6406C0.880534 34.3861 0.760742 34.0791 0.760742 33.7197C0.760742 33.3753 0.888021 33.0833 1.14258 32.8438C1.39714 32.5892 1.69661 32.4619 2.04102 32.4619H8.4873C8.39746 32.2822 8.35254 32.0726 8.35254 31.833C8.35254 31.4437 8.4873 31.1367 8.75684 30.9121C8.4873 30.6875 8.35254 30.3656 8.35254 29.9463C8.35254 29.557 8.4873 29.25 8.75684 29.0254C8.4873 28.8008 8.35254 28.4788 8.35254 28.0596C8.35254 27.6702 8.4873 27.3633 8.75684 27.1387C8.4873 26.9141 8.35254 26.5921 8.35254 26.1729C8.35254 25.7835 8.4873 25.4766 8.75684 25.252C8.4873 24.9824 8.35254 24.6605 8.35254 24.2861C8.35254 23.8669 8.4873 23.5449 8.75684 23.3203C8.4873 23.0957 8.35254 22.7887 8.35254 22.3994C8.35254 21.9801 8.4873 21.6582 8.75684 21.4336C8.4873 21.209 8.35254 20.902 8.35254 20.5127C8.35254 20.0934 8.4873 19.7715 8.75684 19.5469C8.4873 19.3223 8.35254 19.0153 8.35254 18.626C8.35254 18.2067 8.4873 17.8848 8.75684 17.6602C8.4873 17.4355 8.35254 17.1286 8.35254 16.7393C8.35254 16.32 8.4873 15.998 8.75684 15.7734C8.4873 15.5488 8.35254 15.2269 8.35254 14.8076C8.35254 14.4183 8.4873 14.1113 8.75684 13.8867C8.4873 13.6621 8.35254 13.3402 8.35254 12.9209C8.35254 12.5316 8.4873 12.2246 8.75684 12C8.4873 11.7754 8.35254 11.4535 8.35254 11.0342C8.35254 10.6449 8.4873 10.3379 8.75684 10.1133C8.4873 9.88867 8.35254 9.56673 8.35254 9.14746C8.35254 8.75814 8.4873 8.45117 8.75684 8.22656C8.4873 8.00195 8.35254 7.68001 8.35254 7.26074C8.35254 6.87142 8.4873 6.56445 8.75684 6.33984C8.4873 6.11523 8.35254 5.79329 8.35254 5.37402C8.35254 4.95475 8.4873 4.63281 8.75684 4.4082C8.4873 4.18359 8.35254 3.87663 8.35254 3.4873C8.35254 3.23275 8.39746 3.01562 8.4873 2.83594H2.04102C1.69661 2.83594 1.39714 2.71615 1.14258 2.47656C0.888021 2.23698 0.760742 1.94499 0.760742 1.60059C0.760742 1.25618 0.888021 0.956706 1.14258 0.702148C1.39714 0.447591 1.69661 0.320312 2.04102 0.320312H11.4746C11.819 0.320312 12.1185 0.447591 12.373 0.702148C12.6276 0.956706 12.7549 1.25618 12.7549 1.60059C12.7549 1.95996 12.6051 2.26693 12.3057 2.52148C12.6051 2.77604 12.7549 3.09798 12.7549 3.4873C12.7549 3.84668 12.6051 4.15365 12.3057 4.4082C12.6051 4.66276 12.7549 4.9847 12.7549 5.37402C12.7549 5.76335 12.6051 6.08529 12.3057 6.33984C12.6051 6.5944 12.7549 6.90137 12.7549 7.26074C12.7549 7.65007 12.6051 7.97201 12.3057 8.22656C12.6051 8.48112 12.7549 8.78809 12.7549 9.14746C12.7549 9.53678 12.6051 9.85872 12.3057 10.1133C12.6051 10.3678 12.7549 10.6748 12.7549 11.0342C12.7549 11.4235 12.6051 11.7454 12.3057 12C12.6051 12.2546 12.7549 12.5615 12.7549 12.9209C12.7549 13.3102 12.6051 13.6322 12.3057 13.8867C12.6051 14.1413 12.7549 14.4482 12.7549 14.8076C12.7549 15.1969 12.6051 15.5189 12.3057 15.7734C12.6051 16.028 12.7549 16.3499 12.7549 16.7393C12.7549 17.0986 12.6051 17.4056 12.3057 17.6602C12.6051 17.9147 12.7549 18.2367 12.7549 18.626C12.7549 18.9854 12.6051 19.2923 12.3057 19.5469C12.6051 19.8014 12.7549 20.1234 12.7549 20.5127C12.7549 20.8721 12.6051 21.179 12.3057 21.4336C12.6051 21.6882 12.7549 22.0101 12.7549 22.3994C12.7549 22.7588 12.6051 23.0658 12.3057 23.3203C12.6051 23.5749 12.7549 23.8968 12.7549 24.2861C12.7549 24.6305 12.6051 24.9525 12.3057 25.252C12.6051 25.5065 12.7549 25.8135 12.7549 26.1729C12.7549 26.5622 12.6051 26.8841 12.3057 27.1387C12.6051 27.3932 12.7549 27.7002 12.7549 28.0596C12.7549 28.4489 12.6051 28.7708 12.3057 29.0254C12.6051 29.2799 12.7549 29.5869 12.7549 29.9463C12.7549 30.3356 12.6051 30.6576 12.3057 30.9121C12.6051 31.1667 12.7549 31.4736 12.7549 31.833C12.7549 32.0127 12.695 32.2223 12.5752 32.4619H19.0664ZM52.7129 11.6855C53.0573 11.6855 53.3568 11.8128 53.6113 12.0674C53.8659 12.3219 53.9932 12.6214 53.9932 12.9658C53.9932 13.3102 53.8659 13.6022 53.6113 13.8418C53.3568 14.0814 53.0573 14.2012 52.7129 14.2012H46.2217C46.3415 14.3659 46.4014 14.583 46.4014 14.8525C46.4014 15.2419 46.2666 15.5488 45.9971 15.7734C46.2666 15.998 46.4014 16.32 46.4014 16.7393C46.4014 17.1286 46.2666 17.4355 45.9971 17.6602C46.2666 17.8848 46.4014 18.2067 46.4014 18.626C46.4014 18.9704 46.2816 19.2624 46.042 19.502C45.8024 19.7415 45.5104 19.8613 45.166 19.8613C44.8216 19.8613 44.5221 19.7415 44.2676 19.502C44.013 19.2624 43.8857 18.9704 43.8857 18.626C43.8857 18.2367 44.0355 17.9147 44.335 17.6602C44.0355 17.4056 43.8857 17.0986 43.8857 16.7393C43.8857 16.3499 44.0355 16.028 44.335 15.7734C44.0355 15.5189 43.8857 15.2119 43.8857 14.8525C43.8857 14.6579 43.9456 14.4408 44.0654 14.2012H41.3926C41.0182 14.2012 40.7113 14.0814 40.4717 13.8418C40.2321 13.6022 40.1123 13.3102 40.1123 12.9658C40.1123 12.6064 40.2321 12.307 40.4717 12.0674C40.7262 11.8128 41.0332 11.6855 41.3926 11.6855H52.7129ZM42.6279 28.0596C42.6279 28.4339 42.4932 28.7559 42.2236 29.0254C42.4932 29.2949 42.6279 29.6169 42.6279 29.9912C42.6279 30.3356 42.4932 30.6426 42.2236 30.9121C42.4932 31.1816 42.6279 31.5036 42.6279 31.8779C42.6279 32.2223 42.5081 32.5143 42.2686 32.7539C42.029 32.9935 41.737 33.1133 41.3926 33.1133H40.5615C40.6813 33.278 40.7412 33.4951 40.7412 33.7646C40.7412 34.109 40.6064 34.416 40.3369 34.6855C40.6064 34.9551 40.7412 35.277 40.7412 35.6514C40.7412 35.9958 40.6064 36.3027 40.3369 36.5723C40.6064 36.8418 40.7412 37.1637 40.7412 37.5381C40.7412 37.8825 40.6064 38.1895 40.3369 38.459C40.6064 38.7285 40.7412 39.0505 40.7412 39.4248C40.7412 39.7992 40.6064 40.1211 40.3369 40.3906C40.6064 40.6602 40.7412 40.9671 40.7412 41.3115C40.7412 41.6559 40.6214 41.9479 40.3818 42.1875C40.1423 42.4271 39.8353 42.5469 39.4609 42.5469C39.1165 42.5469 38.8245 42.4271 38.585 42.1875C38.3454 41.9479 38.2256 41.6559 38.2256 41.3115C38.2256 40.9671 38.3604 40.6602 38.6299 40.3906C38.3604 40.1211 38.2256 39.7992 38.2256 39.4248C38.2256 39.0505 38.3604 38.7285 38.6299 38.459C38.3604 38.1895 38.2256 37.8825 38.2256 37.5381C38.2256 37.1637 38.3604 36.8418 38.6299 36.5723C38.3604 36.3027 38.2256 35.9958 38.2256 35.6514C38.2256 35.277 38.3604 34.9551 38.6299 34.6855C38.3604 34.416 38.2256 34.109 38.2256 33.7646C38.2256 33.4951 38.2855 33.278 38.4053 33.1133H37.5742C37.2298 33.1133 36.9378 32.9935 36.6982 32.7539C36.4587 32.5143 36.3389 32.2223 36.3389 31.8779C36.3389 31.5036 36.4736 31.1816 36.7432 30.9121C36.4736 30.6426 36.3389 30.3356 36.3389 29.9912C36.3389 29.7217 36.3988 29.5046 36.5186 29.3398H35.6875C35.3431 29.3398 35.0511 29.2201 34.8115 28.9805C34.5719 28.7409 34.4521 28.4339 34.4521 28.0596C34.4521 27.6702 34.5869 27.3633 34.8564 27.1387C34.5869 26.9141 34.4521 26.5921 34.4521 26.1729C34.4521 25.7835 34.5869 25.4766 34.8564 25.252C34.5869 25.0273 34.4521 24.7054 34.4521 24.2861C34.4521 24.0465 34.512 23.8444 34.6318 23.6797H33.8008C33.4564 23.6797 33.1644 23.5524 32.9248 23.2979C32.6852 23.0433 32.5654 22.7438 32.5654 22.3994C32.5654 22.0101 32.7002 21.7031 32.9697 21.4785C32.7002 21.2539 32.5654 20.932 32.5654 20.5127C32.5654 20.1383 32.7002 19.8164 32.9697 19.5469C32.7002 19.3223 32.5654 19.0153 32.5654 18.626C32.5654 18.3714 32.6104 18.1543 32.7002 17.9746H31.9141C31.5697 17.9746 31.2777 17.8548 31.0381 17.6152C30.7985 17.3757 30.6787 17.0837 30.6787 16.7393C30.6787 16.32 30.8135 15.998 31.083 15.7734C30.8135 15.5488 30.6787 15.2419 30.6787 14.8525C30.6787 14.598 30.7236 14.3809 30.8135 14.2012H24.3672C24.0228 14.2012 23.7233 14.0814 23.4688 13.8418C23.2142 13.6022 23.0869 13.3102 23.0869 12.9658C23.0869 12.6214 23.2142 12.3219 23.4688 12.0674C23.7233 11.8128 24.0228 11.6855 24.3672 11.6855H37.5742C37.9336 11.6855 38.2331 11.8128 38.4727 12.0674C38.7272 12.307 38.8545 12.6064 38.8545 12.9658C38.8545 13.3102 38.7347 13.6022 38.4951 13.8418C38.2555 14.0814 37.9486 14.2012 37.5742 14.2012H34.9014C35.0212 14.4408 35.0811 14.6579 35.0811 14.8525C35.0811 15.2119 34.9313 15.5189 34.6318 15.7734C34.9313 16.028 35.0811 16.3499 35.0811 16.7393C35.0811 16.9339 35.0212 17.151 34.9014 17.3906H35.6875C36.0319 17.3906 36.3314 17.5104 36.5859 17.75C36.8405 17.9896 36.9678 18.2816 36.9678 18.626C36.9678 18.9854 36.818 19.2923 36.5186 19.5469C36.818 19.8464 36.9678 20.1683 36.9678 20.5127C36.9678 20.902 36.818 21.224 36.5186 21.4785C36.818 21.7331 36.9678 22.04 36.9678 22.3994C36.9678 22.5941 36.9079 22.8112 36.7881 23.0508H37.5742C37.9486 23.0508 38.2555 23.1706 38.4951 23.4102C38.7347 23.6497 38.8545 23.9417 38.8545 24.2861C38.8545 24.6755 38.7048 24.9974 38.4053 25.252C38.7048 25.5065 38.8545 25.8135 38.8545 26.1729C38.8545 26.5622 38.7048 26.8841 38.4053 27.1387C38.7048 27.3932 38.8545 27.7002 38.8545 28.0596C38.8545 28.2393 38.7946 28.4489 38.6748 28.6885H40.292C40.1722 28.4489 40.1123 28.2393 40.1123 28.0596C40.1123 27.7152 40.2321 27.4232 40.4717 27.1836C40.7262 26.929 41.0332 26.8018 41.3926 26.8018C41.737 26.8018 42.029 26.929 42.2686 27.1836C42.5081 27.4232 42.6279 27.7152 42.6279 28.0596ZM44.5146 20.5127C44.5146 20.887 44.3799 21.209 44.1104 21.4785C44.3799 21.748 44.5146 22.055 44.5146 22.3994C44.5146 22.7738 44.3799 23.0957 44.1104 23.3652C44.3799 23.6348 44.5146 23.9417 44.5146 24.2861C44.5146 24.6605 44.3799 24.9824 44.1104 25.252C44.3799 25.5215 44.5146 25.8285 44.5146 26.1729C44.5146 26.5173 44.3949 26.8167 44.1553 27.0713C43.9157 27.3258 43.6237 27.4531 43.2793 27.4531C42.9349 27.4531 42.6354 27.3258 42.3809 27.0713C42.1263 26.8167 41.999 26.5173 41.999 26.1729C41.999 25.8135 42.1488 25.5065 42.4482 25.252C42.1488 24.9974 41.999 24.6755 41.999 24.2861C41.999 23.9268 42.1488 23.6198 42.4482 23.3652C42.1488 23.1107 41.999 22.7887 41.999 22.3994C41.999 22.04 42.1488 21.7331 42.4482 21.4785C42.1488 21.224 41.999 20.902 41.999 20.5127C41.999 20.1683 42.1263 19.8763 42.3809 19.6367C42.6354 19.3971 42.9349 19.2773 43.2793 19.2773C43.6237 19.2773 43.9157 19.3971 44.1553 19.6367C44.3949 19.8763 44.5146 20.1683 44.5146 20.5127ZM31.2852 41.3115C31.2852 41.6559 31.1579 41.9479 30.9033 42.1875C30.6637 42.4271 30.3717 42.5469 30.0273 42.5469C29.6829 42.5469 29.391 42.4271 29.1514 42.1875C28.9118 41.9479 28.792 41.6559 28.792 41.3115C28.792 40.9222 28.9268 40.6152 29.1963 40.3906C28.9268 40.166 28.792 39.8441 28.792 39.4248C28.792 39.0055 28.9268 38.6836 29.1963 38.459C28.9268 38.2344 28.792 37.9274 28.792 37.5381C28.792 37.1937 28.9118 36.8942 29.1514 36.6396C29.391 36.4001 29.6829 36.2803 30.0273 36.2803C30.4316 36.2803 30.7536 36.4225 30.9932 36.707C31.0231 36.6471 31.0531 36.6022 31.083 36.5723C30.8135 36.3477 30.6787 36.0407 30.6787 35.6514C30.6787 35.292 30.7985 34.985 31.0381 34.7305C31.2777 34.4759 31.5697 34.3486 31.9141 34.3486C32.2585 34.3486 32.5505 34.4759 32.79 34.7305C33.0296 34.985 33.1494 35.292 33.1494 35.6514C33.1494 36.0407 33.0146 36.3477 32.7451 36.5723L32.8799 36.707C33.1195 36.4225 33.4264 36.2803 33.8008 36.2803C34.1452 36.2803 34.4447 36.4001 34.6992 36.6396C34.9538 36.8942 35.0811 37.1937 35.0811 37.5381C35.0811 37.8825 34.9538 38.1745 34.6992 38.4141C34.4447 38.6536 34.1452 38.7734 33.8008 38.7734C33.4115 38.7734 33.1045 38.6387 32.8799 38.3691C32.8499 38.3991 32.805 38.429 32.7451 38.459C33.0146 38.6836 33.1494 39.0055 33.1494 39.4248C33.1494 39.7692 33.0296 40.0612 32.79 40.3008C32.5505 40.5404 32.2585 40.6602 31.9141 40.6602H31.1279C31.2327 40.8698 31.2852 41.0869 31.2852 41.3115ZM37.5742 41.9404C37.9336 41.9404 38.2331 42.0602 38.4727 42.2998C38.7272 42.5544 38.8545 42.8538 38.8545 43.1982C38.8545 43.5576 38.7272 43.8571 38.4727 44.0967C38.2331 44.3512 37.9336 44.4785 37.5742 44.4785C37.2298 44.4785 36.9378 44.3512 36.6982 44.0967C36.4587 43.8421 36.3389 43.5426 36.3389 43.1982C36.3389 42.8538 36.4587 42.5544 36.6982 42.2998C36.9378 42.0602 37.2298 41.9404 37.5742 41.9404ZM33.1494 43.1982C33.1494 43.5426 33.0296 43.8421 32.79 44.0967C32.5505 44.3512 32.2585 44.4785 31.9141 44.4785C31.5697 44.4785 31.2777 44.3512 31.0381 44.0967C30.7985 43.8421 30.6787 43.5426 30.6787 43.1982C30.6787 42.8538 30.7985 42.5544 31.0381 42.2998C31.2777 42.0602 31.5697 41.9404 31.9141 41.9404C32.2585 41.9404 32.5505 42.0677 32.79 42.3223C33.0296 42.5768 33.1494 42.8688 33.1494 43.1982ZM35.6875 43.8271C36.0319 43.8271 36.3314 43.9469 36.5859 44.1865C36.8405 44.4411 36.9678 44.7406 36.9678 45.085C36.9678 45.4294 36.8405 45.7288 36.5859 45.9834C36.3314 46.238 36.0319 46.3652 35.6875 46.3652H33.8008C33.4564 46.3652 33.1644 46.238 32.9248 45.9834C32.6852 45.7288 32.5654 45.4294 32.5654 45.085C32.5654 44.7406 32.6852 44.4411 32.9248 44.1865C33.1644 43.9469 33.4564 43.8271 33.8008 43.8271H35.6875ZM82.4062 12C82.6908 12.2396 82.833 12.5465 82.833 12.9209C82.833 13.2952 82.7057 13.6022 82.4512 13.8418C82.2116 14.0814 81.9196 14.2012 81.5752 14.2012H77.8018C77.4274 14.2012 77.1204 14.0814 76.8809 13.8418C76.6413 13.6022 76.5215 13.2952 76.5215 12.9209C76.5215 12.5765 76.6413 12.2845 76.8809 12.0449C77.1204 11.8053 77.4274 11.6855 77.8018 11.6855H80.4746C80.3548 11.446 80.2949 11.2288 80.2949 11.0342C80.2949 10.6898 80.4222 10.3978 80.6768 10.1582C80.9313 9.91862 81.2308 9.79883 81.5752 9.79883C81.9196 9.79883 82.2116 9.91862 82.4512 10.1582C82.7057 10.3978 82.833 10.6898 82.833 11.0342C82.833 11.4385 82.6908 11.7604 82.4062 12ZM68.3457 14.2012C67.9863 14.2012 67.6868 14.0814 67.4473 13.8418C67.2077 13.6022 67.0879 13.2952 67.0879 12.9209C67.0879 12.5765 67.2077 12.2845 67.4473 12.0449C67.7018 11.8053 68.0013 11.6855 68.3457 11.6855H72.0967C72.4561 11.6855 72.763 11.8053 73.0176 12.0449C73.2721 12.2845 73.3994 12.5765 73.3994 12.9209C73.3994 13.2803 73.2721 13.5872 73.0176 13.8418C72.763 14.0814 72.4561 14.2012 72.0967 14.2012H68.3457ZM62.6855 23.6348C62.3262 23.6348 62.0192 23.515 61.7646 23.2754C61.5101 23.0358 61.3828 22.7438 61.3828 22.3994C61.3828 22.0251 61.54 21.7031 61.8545 21.4336C61.54 21.1641 61.3828 20.8571 61.3828 20.5127C61.3828 20.1383 61.54 19.8164 61.8545 19.5469C61.54 19.2773 61.3828 18.9704 61.3828 18.626C61.3828 18.2516 61.54 17.9297 61.8545 17.6602C61.54 17.3906 61.3828 17.0837 61.3828 16.7393C61.3828 16.3799 61.5101 16.0804 61.7646 15.8408C62.0192 15.5863 62.3262 15.459 62.6855 15.459H63.4492C63.3294 15.2194 63.2695 15.0023 63.2695 14.8076C63.2695 14.4632 63.3968 14.1712 63.6514 13.9316C63.9059 13.6921 64.2129 13.5723 64.5723 13.5723H66.459C66.8034 13.5723 67.0954 13.6921 67.335 13.9316C67.5745 14.1712 67.6943 14.4632 67.6943 14.8076C67.6943 15.182 67.5745 15.4889 67.335 15.7285C67.0954 15.9681 66.8034 16.0879 66.459 16.0879H65.6729C65.7627 16.2676 65.8076 16.4847 65.8076 16.7393C65.8076 17.1136 65.6654 17.4206 65.3809 17.6602C65.6654 17.8997 65.8076 18.2217 65.8076 18.626C65.8076 19.0003 65.6654 19.3073 65.3809 19.5469C65.6654 19.7865 65.8076 20.1084 65.8076 20.5127C65.8076 20.887 65.6654 21.194 65.3809 21.4336C65.6654 21.6732 65.8076 21.9951 65.8076 22.3994C65.8076 22.654 65.7627 22.8711 65.6729 23.0508H66.459C66.8034 23.0508 67.0954 23.1706 67.335 23.4102C67.5745 23.6497 67.6943 23.9417 67.6943 24.2861C67.6943 24.6305 67.5745 24.9225 67.335 25.1621C67.0954 25.4017 66.8034 25.5215 66.459 25.5215H64.5723C64.2129 25.5215 63.9059 25.4017 63.6514 25.1621C63.3968 24.9225 63.2695 24.6305 63.2695 24.2861C63.2695 24.0915 63.3294 23.8743 63.4492 23.6348H62.6855ZM72.748 14.8076C72.748 14.4632 72.8678 14.1712 73.1074 13.9316C73.347 13.6921 73.639 13.5723 73.9834 13.5723H75.8701C76.2445 13.5723 76.5514 13.6921 76.791 13.9316C77.0456 14.1712 77.1729 14.4632 77.1729 14.8076C77.1729 15.0771 77.113 15.2943 76.9932 15.459H77.8018C78.1462 15.459 78.4382 15.5788 78.6777 15.8184C78.9323 16.0579 79.0596 16.3649 79.0596 16.7393C79.0596 17.0687 78.9173 17.3757 78.6328 17.6602C78.9173 17.9447 79.0596 18.2666 79.0596 18.626C79.0596 18.9554 78.9173 19.2624 78.6328 19.5469C78.9173 19.8314 79.0596 20.1533 79.0596 20.5127C79.0596 20.8421 78.9173 21.1491 78.6328 21.4336C78.9173 21.7181 79.0596 22.04 79.0596 22.3994C79.0596 22.7438 78.9323 23.0358 78.6777 23.2754C78.4382 23.515 78.1462 23.6348 77.8018 23.6348H76.9932C77.113 23.7995 77.1729 24.0166 77.1729 24.2861C77.1729 24.6305 77.0456 24.9225 76.791 25.1621C76.5514 25.4017 76.2445 25.5215 75.8701 25.5215H73.9834C73.639 25.5215 73.347 25.4017 73.1074 25.1621C72.8678 24.9225 72.748 24.6305 72.748 24.2861C72.748 23.9417 72.8678 23.6497 73.1074 23.4102C73.347 23.1706 73.639 23.0508 73.9834 23.0508H74.8145C74.6947 22.8861 74.6348 22.6689 74.6348 22.3994C74.6348 22.04 74.777 21.7181 75.0615 21.4336C74.777 21.1491 74.6348 20.8421 74.6348 20.5127C74.6348 20.1533 74.777 19.8314 75.0615 19.5469C74.777 19.2624 74.6348 18.9554 74.6348 18.626C74.6348 18.2666 74.777 17.9447 75.0615 17.6602C74.777 17.3757 74.6348 17.0687 74.6348 16.7393C74.6348 16.4697 74.6947 16.2526 74.8145 16.0879H73.9834C73.639 16.0879 73.347 15.9681 73.1074 15.7285C72.8678 15.4889 72.748 15.182 72.748 14.8076ZM62.6855 27.4082C62.3262 27.4082 62.0192 27.2884 61.7646 27.0488C61.5101 26.8092 61.3828 26.5173 61.3828 26.1729C61.3828 25.8285 61.5101 25.5365 61.7646 25.2969C62.0342 25.0423 62.3411 24.915 62.6855 24.915C63.0299 24.915 63.3219 25.0423 63.5615 25.2969C63.8011 25.5365 63.9209 25.8285 63.9209 26.1729C63.9209 26.5173 63.8011 26.8092 63.5615 27.0488C63.3219 27.2884 63.0299 27.4082 62.6855 27.4082ZM72.0967 24.915C72.4411 24.915 72.7406 25.0423 72.9951 25.2969C73.2646 25.5365 73.3994 25.8285 73.3994 26.1729C73.3994 26.5173 73.2721 26.8092 73.0176 27.0488C72.763 27.2884 72.4561 27.4082 72.0967 27.4082H68.3457C68.0013 27.4082 67.7018 27.2884 67.4473 27.0488C67.2077 26.8092 67.0879 26.5173 67.0879 26.1729C67.0879 25.8285 67.2077 25.5365 67.4473 25.2969C67.7018 25.0423 68.0013 24.915 68.3457 24.915H72.0967ZM79.6885 34.3486C80.0329 34.3486 80.3249 34.4759 80.5645 34.7305C80.819 34.9701 80.9463 35.277 80.9463 35.6514C80.9463 35.9808 80.804 36.2878 80.5195 36.5723C80.804 36.8568 80.9463 37.1787 80.9463 37.5381C80.9463 37.8675 80.804 38.1745 80.5195 38.459C80.804 38.7435 80.9463 39.0654 80.9463 39.4248C80.9463 39.7542 80.804 40.0612 80.5195 40.3457C80.804 40.6302 80.9463 40.9521 80.9463 41.3115C80.9463 41.6559 80.819 41.9479 80.5645 42.1875C80.3249 42.4271 80.0329 42.5469 79.6885 42.5469H78.8799C78.9997 42.7116 79.0596 42.9287 79.0596 43.1982C79.0596 43.5426 78.9323 43.8346 78.6777 44.0742C78.4382 44.3138 78.1462 44.4336 77.8018 44.4336H75.8701C75.5257 44.4336 75.2337 44.3138 74.9941 44.0742C74.7546 43.8346 74.6348 43.5426 74.6348 43.1982C74.6348 42.8538 74.7546 42.5544 74.9941 42.2998C75.2337 42.0602 75.5257 41.9404 75.8701 41.9404H76.7012C76.5814 41.7458 76.5215 41.5361 76.5215 41.3115C76.5215 40.9521 76.6637 40.6302 76.9482 40.3457C76.6637 40.0612 76.5215 39.7542 76.5215 39.4248C76.5215 39.0654 76.6637 38.7435 76.9482 38.459C76.6637 38.1745 76.5215 37.8675 76.5215 37.5381C76.5215 37.1787 76.6637 36.8568 76.9482 36.5723C76.6637 36.2878 76.5215 35.9808 76.5215 35.6514C76.5215 35.3818 76.5814 35.1647 76.7012 35H64.5723C64.2129 35 63.9059 34.8802 63.6514 34.6406C63.3968 34.3861 63.2695 34.0791 63.2695 33.7197C63.2695 33.555 63.3294 33.3529 63.4492 33.1133H62.6855C62.3411 33.1133 62.0342 32.986 61.7646 32.7314C61.5101 32.4769 61.3828 32.1774 61.3828 31.833C61.3828 31.6683 61.4427 31.4661 61.5625 31.2266H60.7988C60.4544 31.2266 60.1475 31.0993 59.8779 30.8447C59.6234 30.5902 59.4961 30.2907 59.4961 29.9463C59.4961 29.6019 59.6533 29.2949 59.9678 29.0254C59.6533 28.7559 59.4961 28.4339 59.4961 28.0596C59.4961 27.7152 59.6234 27.4232 59.8779 27.1836C60.1475 26.929 60.4544 26.8018 60.7988 26.8018C61.1432 26.8018 61.4352 26.929 61.6748 27.1836C61.9144 27.4232 62.0342 27.7152 62.0342 28.0596C62.0342 28.3141 61.9743 28.5238 61.8545 28.6885H62.6855C63.0299 28.6885 63.3219 28.8158 63.5615 29.0703C63.8011 29.3099 63.9209 29.6019 63.9209 29.9463C63.9209 30.1859 63.876 30.3955 63.7861 30.5752H73.9834C74.3278 30.5752 74.6273 30.7025 74.8818 30.957C75.1514 31.1966 75.2861 31.4886 75.2861 31.833C75.2861 32.0127 75.2262 32.2223 75.1064 32.4619H77.8018C78.1462 32.4619 78.4382 32.5892 78.6777 32.8438C78.9323 33.0833 79.0596 33.3753 79.0596 33.7197C79.0596 33.9743 78.9997 34.1839 78.8799 34.3486H79.6885ZM65.4482 42.2998C65.6878 42.5544 65.8076 42.8538 65.8076 43.1982C65.8076 43.5426 65.6878 43.8346 65.4482 44.0742C65.2087 44.3138 64.9167 44.4336 64.5723 44.4336H62.6855C62.3262 44.4336 62.0192 44.3138 61.7646 44.0742C61.5101 43.8346 61.3828 43.5426 61.3828 43.1982C61.3828 43.0036 61.4427 42.7865 61.5625 42.5469H60.7988C60.4395 42.5469 60.1325 42.4271 59.8779 42.1875C59.6234 41.9479 59.4961 41.6559 59.4961 41.3115C59.4961 40.9222 59.6533 40.6003 59.9678 40.3457C59.6533 40.0762 59.4961 39.7692 59.4961 39.4248C59.4961 39.0505 59.6533 38.7285 59.9678 38.459C59.6533 38.1895 59.4961 37.8825 59.4961 37.5381C59.4961 37.1787 59.6234 36.8717 59.8779 36.6172C60.1325 36.3626 60.4395 36.2354 60.7988 36.2354H61.5625C61.4427 35.9958 61.3828 35.8011 61.3828 35.6514C61.3828 35.292 61.5101 34.985 61.7646 34.7305C62.0192 34.4759 62.3262 34.3486 62.6855 34.3486C63.0299 34.3486 63.3219 34.4759 63.5615 34.7305C63.8011 34.9701 63.9209 35.277 63.9209 35.6514C63.9209 36.0257 63.7786 36.3327 63.4941 36.5723C63.7786 36.8118 63.9209 37.1338 63.9209 37.5381C63.9209 37.9124 63.7786 38.2194 63.4941 38.459C63.7786 38.6986 63.9209 39.0205 63.9209 39.4248C63.9209 39.7992 63.7786 40.1061 63.4941 40.3457C63.7786 40.5853 63.9209 40.9072 63.9209 41.3115C63.9209 41.5062 63.876 41.7158 63.7861 41.9404H64.5723C64.9167 41.9404 65.2087 42.0602 65.4482 42.2998ZM73.9834 43.8271C74.3278 43.8271 74.6273 43.9469 74.8818 44.1865C75.1514 44.4411 75.2861 44.7406 75.2861 45.085C75.2861 45.4294 75.1589 45.7214 74.9043 45.9609C74.6497 46.2005 74.3428 46.3203 73.9834 46.3203H66.459C66.1146 46.3203 65.8151 46.2005 65.5605 45.9609C65.321 45.7214 65.2012 45.4294 65.2012 45.085C65.2012 44.7406 65.321 44.4411 65.5605 44.1865C65.8151 43.9469 66.1146 43.8271 66.459 43.8271H73.9834ZM98.0391 14.2012C97.6797 14.2012 97.3802 14.0814 97.1406 13.8418C96.901 13.6022 96.7812 13.2952 96.7812 12.9209C96.7812 12.5765 96.901 12.2845 97.1406 12.0449C97.3952 11.8053 97.6947 11.6855 98.0391 11.6855H103.677C104.051 11.6855 104.358 11.8053 104.598 12.0449C104.852 12.2845 104.979 12.5765 104.979 12.9209C104.979 13.2952 104.852 13.6022 104.598 13.8418C104.358 14.0814 104.051 14.2012 103.677 14.2012H98.0391ZM97.0283 30.957C97.2679 31.1966 97.3877 31.4886 97.3877 31.833C97.3877 32.1774 97.2679 32.4769 97.0283 32.7314C96.7887 32.986 96.4967 33.1133 96.1523 33.1133H94.2656C93.9212 33.1133 93.6217 32.986 93.3672 32.7314C93.1276 32.4769 93.0078 32.1774 93.0078 31.833C93.0078 31.6084 93.0527 31.4062 93.1426 31.2266H92.3789C92.0345 31.2266 91.7275 31.0993 91.458 30.8447C91.2035 30.5902 91.0762 30.2907 91.0762 29.9463C91.0762 29.6019 91.2334 29.2949 91.5479 29.0254C91.2334 28.7559 91.0762 28.4339 91.0762 28.0596C91.0762 27.7152 91.2334 27.4082 91.5479 27.1387C91.2334 26.8691 91.0762 26.5472 91.0762 26.1729C91.0762 25.8285 91.2334 25.5215 91.5479 25.252C91.2334 24.9375 91.0762 24.6156 91.0762 24.2861C91.0762 23.9118 91.2334 23.5898 91.5479 23.3203C91.2334 23.0508 91.0762 22.7438 91.0762 22.3994C91.0762 22.0251 91.2334 21.7031 91.5479 21.4336C91.2334 21.1641 91.0762 20.8571 91.0762 20.5127C91.0762 20.1383 91.2334 19.8164 91.5479 19.5469C91.2334 19.2773 91.0762 18.9704 91.0762 18.626C91.0762 18.2516 91.2334 17.9297 91.5479 17.6602C91.2334 17.3906 91.0762 17.0837 91.0762 16.7393C91.0762 16.3799 91.2035 16.0804 91.458 15.8408C91.7126 15.5863 92.0195 15.459 92.3789 15.459H93.1426C93.0527 15.2793 93.0078 15.0622 93.0078 14.8076C93.0078 14.4632 93.1276 14.1712 93.3672 13.9316C93.6217 13.6921 93.9212 13.5723 94.2656 13.5723H96.1523C96.4967 13.5723 96.7887 13.6921 97.0283 13.9316C97.2679 14.1712 97.3877 14.4632 97.3877 14.8076C97.3877 15.182 97.2679 15.4889 97.0283 15.7285C96.7887 15.9681 96.4967 16.0879 96.1523 16.0879H95.3662C95.4561 16.2676 95.501 16.4847 95.501 16.7393C95.501 17.1136 95.3587 17.4206 95.0742 17.6602C95.3587 17.8997 95.501 18.2217 95.501 18.626C95.501 19.0003 95.3587 19.3073 95.0742 19.5469C95.3587 19.7865 95.501 20.1084 95.501 20.5127C95.501 20.887 95.3587 21.194 95.0742 21.4336C95.3587 21.6732 95.501 21.9951 95.501 22.3994C95.501 22.7738 95.3587 23.0807 95.0742 23.3203C95.3587 23.5599 95.501 23.8818 95.501 24.2861C95.501 24.6455 95.3587 24.9674 95.0742 25.252C95.3587 25.4915 95.501 25.7985 95.501 26.1729C95.501 26.5771 95.3587 26.8991 95.0742 27.1387C95.3587 27.3783 95.501 27.6852 95.501 28.0596C95.501 28.4639 95.3587 28.7858 95.0742 29.0254C95.3587 29.265 95.501 29.5719 95.501 29.9463C95.501 30.1859 95.4561 30.3955 95.3662 30.5752H96.1523C96.4967 30.5752 96.7887 30.7025 97.0283 30.957ZM110.258 15.8184C110.512 16.0579 110.64 16.3649 110.64 16.7393C110.64 17.1136 110.497 17.4206 110.213 17.6602C110.497 17.8997 110.64 18.2217 110.64 18.626C110.64 19.0003 110.497 19.3073 110.213 19.5469C110.497 19.7865 110.64 20.1084 110.64 20.5127C110.64 20.887 110.497 21.194 110.213 21.4336C110.497 21.6732 110.64 21.9951 110.64 22.3994C110.64 22.7738 110.497 23.0807 110.213 23.3203C110.497 23.5599 110.64 23.8818 110.64 24.2861C110.64 24.6455 110.497 24.9674 110.213 25.252C110.497 25.4915 110.64 25.7985 110.64 26.1729C110.64 26.5771 110.497 26.8991 110.213 27.1387C110.497 27.3783 110.64 27.6852 110.64 28.0596C110.64 28.4639 110.497 28.7858 110.213 29.0254C110.497 29.265 110.64 29.5719 110.64 29.9463C110.64 30.2907 110.512 30.5902 110.258 30.8447C110.018 31.0993 109.726 31.2266 109.382 31.2266H108.573C108.693 31.3913 108.753 31.5934 108.753 31.833C108.753 32.1774 108.626 32.4769 108.371 32.7314C108.132 32.986 107.84 33.1133 107.495 33.1133H105.608C105.249 33.1133 104.942 32.9935 104.688 32.7539C104.448 32.4993 104.328 32.1924 104.328 31.833C104.328 31.4886 104.448 31.1966 104.688 30.957C104.927 30.7025 105.234 30.5752 105.608 30.5752H106.395C106.275 30.3356 106.215 30.126 106.215 29.9463C106.215 29.6019 106.372 29.2949 106.687 29.0254C106.372 28.7559 106.215 28.4339 106.215 28.0596C106.215 27.7152 106.372 27.4082 106.687 27.1387C106.372 26.8691 106.215 26.5472 106.215 26.1729C106.215 25.8285 106.372 25.5215 106.687 25.252C106.372 24.9375 106.215 24.6156 106.215 24.2861C106.215 23.9118 106.372 23.5898 106.687 23.3203C106.372 23.0508 106.215 22.7438 106.215 22.3994C106.215 22.0251 106.372 21.7031 106.687 21.4336C106.372 21.1641 106.215 20.8571 106.215 20.5127C106.215 20.1383 106.372 19.8164 106.687 19.5469C106.372 19.2773 106.215 18.9704 106.215 18.626C106.215 18.2516 106.372 17.9297 106.687 17.6602C106.372 17.3906 106.215 17.0837 106.215 16.7393C106.215 16.5446 106.275 16.3275 106.395 16.0879H105.608C105.234 16.0879 104.927 15.9681 104.688 15.7285C104.448 15.4889 104.328 15.182 104.328 14.8076C104.328 14.4632 104.448 14.1712 104.688 13.9316C104.927 13.6921 105.234 13.5723 105.608 13.5723H107.495C107.84 13.5723 108.132 13.6921 108.371 13.9316C108.626 14.1712 108.753 14.4632 108.753 14.8076C108.753 15.0771 108.693 15.2943 108.573 15.459H109.382C109.726 15.459 110.018 15.5788 110.258 15.8184ZM103.677 32.4619C104.051 32.4619 104.358 32.5892 104.598 32.8438C104.852 33.0833 104.979 33.3753 104.979 33.7197C104.979 34.0941 104.852 34.401 104.598 34.6406C104.358 34.8802 104.051 35 103.677 35H98.0391C97.6797 35 97.3802 34.8802 97.1406 34.6406C96.901 34.401 96.7812 34.0941 96.7812 33.7197C96.7812 33.3753 96.901 33.0833 97.1406 32.8438C97.3952 32.5892 97.6947 32.4619 98.0391 32.4619H103.677ZM137.75 32.4619C138.094 32.4619 138.386 32.5892 138.626 32.8438C138.866 33.0833 138.985 33.3753 138.985 33.7197C138.985 34.0941 138.866 34.401 138.626 34.6406C138.386 34.8802 138.094 35 137.75 35H118.838C118.479 35 118.172 34.8802 117.917 34.6406C117.677 34.3861 117.558 34.0791 117.558 33.7197C117.558 33.3753 117.685 33.0833 117.939 32.8438C118.194 32.5892 118.493 32.4619 118.838 32.4619H125.284C125.194 32.2822 125.149 32.0726 125.149 31.833C125.149 31.4437 125.284 31.1367 125.554 30.9121C125.284 30.6875 125.149 30.3656 125.149 29.9463C125.149 29.557 125.284 29.25 125.554 29.0254C125.284 28.8008 125.149 28.4788 125.149 28.0596C125.149 27.6702 125.284 27.3633 125.554 27.1387C125.284 26.9141 125.149 26.5921 125.149 26.1729C125.149 25.7835 125.284 25.4766 125.554 25.252C125.284 24.9824 125.149 24.6605 125.149 24.2861C125.149 23.8669 125.284 23.5449 125.554 23.3203C125.284 23.0957 125.149 22.7887 125.149 22.3994C125.149 21.9801 125.284 21.6582 125.554 21.4336C125.284 21.209 125.149 20.902 125.149 20.5127C125.149 20.0934 125.284 19.7715 125.554 19.5469C125.284 19.3223 125.149 19.0153 125.149 18.626C125.149 18.2067 125.284 17.8848 125.554 17.6602C125.284 17.4355 125.149 17.1286 125.149 16.7393C125.149 16.32 125.284 15.998 125.554 15.7734C125.284 15.5488 125.149 15.2269 125.149 14.8076C125.149 14.583 125.194 14.3809 125.284 14.2012H118.838C118.479 14.2012 118.172 14.0814 117.917 13.8418C117.677 13.5872 117.558 13.2803 117.558 12.9209C117.558 12.5765 117.685 12.2845 117.939 12.0449C118.194 11.8053 118.493 11.6855 118.838 11.6855H128.271C128.616 11.6855 128.915 11.8053 129.17 12.0449C129.424 12.2845 129.552 12.5765 129.552 12.9209C129.552 13.3102 129.402 13.6322 129.103 13.8867C129.402 14.1413 129.552 14.4482 129.552 14.8076C129.552 15.1969 129.402 15.5189 129.103 15.7734C129.402 16.028 129.552 16.3499 129.552 16.7393C129.552 16.904 129.492 17.1061 129.372 17.3457H132.09C132.434 17.3457 132.726 17.473 132.966 17.7275C133.205 17.9821 133.325 18.2816 133.325 18.626C133.325 18.9704 133.205 19.2624 132.966 19.502C132.726 19.7415 132.434 19.8613 132.09 19.8613H129.372C129.492 20.1009 129.552 20.318 129.552 20.5127C129.552 20.8721 129.402 21.179 129.103 21.4336C129.402 21.6882 129.552 22.0101 129.552 22.3994C129.552 22.7588 129.402 23.0658 129.103 23.3203C129.402 23.5749 129.552 23.8968 129.552 24.2861C129.552 24.6305 129.402 24.9525 129.103 25.252C129.402 25.5065 129.552 25.8135 129.552 26.1729C129.552 26.5622 129.402 26.8841 129.103 27.1387C129.402 27.3932 129.552 27.7002 129.552 28.0596C129.552 28.4489 129.402 28.7708 129.103 29.0254C129.402 29.2799 129.552 29.5869 129.552 29.9463C129.552 30.3356 129.402 30.6576 129.103 30.9121C129.402 31.1667 129.552 31.4736 129.552 31.833C129.552 32.0127 129.492 32.2223 129.372 32.4619H137.75ZM135.863 14.2012C135.504 14.2012 135.197 14.0814 134.942 13.8418C134.703 13.5872 134.583 13.2803 134.583 12.9209C134.583 12.5765 134.71 12.2845 134.965 12.0449C135.219 11.8053 135.519 11.6855 135.863 11.6855H137.75C138.094 11.6855 138.386 11.8053 138.626 12.0449C138.866 12.2845 138.985 12.5765 138.985 12.9209C138.985 13.2952 138.866 13.6022 138.626 13.8418C138.386 14.0814 138.094 14.2012 137.75 14.2012H135.863ZM141.523 15.459C141.868 15.459 142.16 15.5788 142.399 15.8184C142.639 16.0579 142.759 16.3649 142.759 16.7393C142.759 17.0837 142.639 17.3757 142.399 17.6152C142.16 17.8548 141.868 17.9746 141.523 17.9746C141.149 17.9746 140.827 17.8398 140.558 17.5703L140.468 17.6602C140.737 17.8848 140.872 18.2067 140.872 18.626C140.872 18.9704 140.752 19.2624 140.513 19.502C140.273 19.7415 139.981 19.8613 139.637 19.8613C139.292 19.8613 138.993 19.7415 138.738 19.502C138.484 19.2624 138.356 18.9704 138.356 18.626C138.356 18.2367 138.506 17.9147 138.806 17.6602C138.746 17.6302 138.701 17.6003 138.671 17.5703C138.401 17.8398 138.094 17.9746 137.75 17.9746C137.406 17.9746 137.106 17.8548 136.852 17.6152C136.597 17.3757 136.47 17.0837 136.47 16.7393C136.47 16.3799 136.59 16.0804 136.829 15.8408C137.084 15.5863 137.391 15.459 137.75 15.459C138.094 15.459 138.401 15.5938 138.671 15.8633C138.701 15.8333 138.746 15.8034 138.806 15.7734C138.506 15.5189 138.356 15.1969 138.356 14.8076C138.356 14.4632 138.484 14.1712 138.738 13.9316C138.993 13.6921 139.292 13.5723 139.637 13.5723C139.981 13.5723 140.273 13.6921 140.513 13.9316C140.752 14.1712 140.872 14.4632 140.872 14.8076C140.872 15.2269 140.737 15.5488 140.468 15.7734L140.558 15.8633C140.827 15.5938 141.149 15.459 141.523 15.459ZM132.696 16.7393C132.696 16.3649 132.831 16.043 133.101 15.7734C132.831 15.5039 132.696 15.182 132.696 14.8076C132.696 14.4632 132.816 14.1712 133.056 13.9316C133.295 13.6921 133.602 13.5723 133.977 13.5723C134.321 13.5723 134.613 13.6921 134.853 13.9316C135.092 14.1712 135.212 14.4632 135.212 14.8076C135.212 15.182 135.077 15.5039 134.808 15.7734C135.077 16.043 135.212 16.3649 135.212 16.7393C135.212 17.0837 135.092 17.3757 134.853 17.6152C134.613 17.8548 134.321 17.9746 133.977 17.9746C133.602 17.9746 133.295 17.8548 133.056 17.6152C132.816 17.3757 132.696 17.0837 132.696 16.7393ZM155.247 4.72266C154.903 4.72266 154.603 4.60286 154.349 4.36328C154.094 4.1237 153.967 3.83171 153.967 3.4873C153.967 3.1429 154.094 2.85091 154.349 2.61133C154.603 2.37174 154.903 2.25195 155.247 2.25195C155.636 2.25195 155.943 2.38672 156.168 2.65625L156.303 2.52148C156.033 2.29688 155.898 1.98991 155.898 1.60059C155.898 1.25618 156.018 0.956706 156.258 0.702148C156.497 0.447591 156.789 0.320312 157.134 0.320312H159.021C159.365 0.320312 159.657 0.447591 159.896 0.702148C160.136 0.956706 160.256 1.25618 160.256 1.60059C160.256 1.98991 160.121 2.29688 159.852 2.52148L159.986 2.65625C160.211 2.38672 160.518 2.25195 160.907 2.25195C161.252 2.25195 161.551 2.37174 161.806 2.61133C162.06 2.85091 162.188 3.1429 162.188 3.4873C162.188 3.83171 162.06 4.1237 161.806 4.36328C161.551 4.60286 161.252 4.72266 160.907 4.72266C160.518 4.72266 160.211 4.58789 159.986 4.31836C159.956 4.34831 159.911 4.37826 159.852 4.4082C160.121 4.63281 160.256 4.95475 160.256 5.37402C160.256 5.71842 160.136 6.01042 159.896 6.25C159.657 6.48958 159.365 6.60938 159.021 6.60938H157.134C156.789 6.60938 156.497 6.48958 156.258 6.25C156.018 6.01042 155.898 5.71842 155.898 5.37402C155.898 4.95475 156.033 4.63281 156.303 4.4082C156.243 4.37826 156.198 4.34831 156.168 4.31836C155.943 4.58789 155.636 4.72266 155.247 4.72266ZM166.567 32.4619C166.942 32.4619 167.249 32.5892 167.488 32.8438C167.728 33.0833 167.848 33.3753 167.848 33.7197C167.848 34.0941 167.728 34.401 167.488 34.6406C167.249 34.8802 166.942 35 166.567 35H149.587C149.213 35 148.906 34.8802 148.666 34.6406C148.426 34.401 148.307 34.0941 148.307 33.7197C148.307 33.3753 148.426 33.0833 148.666 32.8438C148.906 32.5892 149.213 32.4619 149.587 32.4619H156.033C155.943 32.2822 155.898 32.0726 155.898 31.833C155.898 31.4437 156.033 31.1367 156.303 30.9121C156.033 30.6875 155.898 30.3656 155.898 29.9463C155.898 29.557 156.033 29.25 156.303 29.0254C156.033 28.8008 155.898 28.4788 155.898 28.0596C155.898 27.6702 156.033 27.3633 156.303 27.1387C156.033 26.9141 155.898 26.5921 155.898 26.1729C155.898 25.7835 156.033 25.4766 156.303 25.252C156.033 24.9824 155.898 24.6605 155.898 24.2861C155.898 23.8669 156.033 23.5449 156.303 23.3203C156.033 23.0957 155.898 22.7887 155.898 22.3994C155.898 21.9801 156.033 21.6582 156.303 21.4336C156.033 21.209 155.898 20.902 155.898 20.5127C155.898 20.0934 156.033 19.7715 156.303 19.5469C156.033 19.3223 155.898 19.0153 155.898 18.626C155.898 18.2067 156.033 17.8848 156.303 17.6602C156.033 17.4355 155.898 17.1286 155.898 16.7393C155.898 16.32 156.033 15.998 156.303 15.7734C156.033 15.5488 155.898 15.2269 155.898 14.8076C155.898 14.583 155.943 14.3809 156.033 14.2012H149.587C149.213 14.2012 148.906 14.0814 148.666 13.8418C148.426 13.6022 148.307 13.2952 148.307 12.9209C148.307 12.5765 148.426 12.2845 148.666 12.0449C148.906 11.8053 149.213 11.6855 149.587 11.6855H159.021C159.365 11.6855 159.657 11.8053 159.896 12.0449C160.136 12.2845 160.256 12.5765 160.256 12.9209C160.256 13.3402 160.121 13.6621 159.852 13.8867C160.121 14.1113 160.256 14.4183 160.256 14.8076C160.256 15.2269 160.121 15.5488 159.852 15.7734C160.121 15.998 160.256 16.32 160.256 16.7393C160.256 17.1286 160.121 17.4355 159.852 17.6602C160.121 17.8848 160.256 18.2067 160.256 18.626C160.256 19.0153 160.121 19.3223 159.852 19.5469C160.121 19.7715 160.256 20.0934 160.256 20.5127C160.256 20.902 160.121 21.209 159.852 21.4336C160.121 21.6582 160.256 21.9801 160.256 22.3994C160.256 22.7887 160.121 23.0957 159.852 23.3203C160.121 23.5449 160.256 23.8669 160.256 24.2861C160.256 24.6605 160.121 24.9824 159.852 25.252C160.121 25.4766 160.256 25.7835 160.256 26.1729C160.256 26.5921 160.121 26.9141 159.852 27.1387C160.121 27.3633 160.256 27.6702 160.256 28.0596C160.256 28.4788 160.121 28.8008 159.852 29.0254C160.121 29.25 160.256 29.557 160.256 29.9463C160.256 30.3656 160.121 30.6875 159.852 30.9121C160.121 31.1367 160.256 31.4437 160.256 31.833C160.256 32.0726 160.211 32.2822 160.121 32.4619H166.567ZM191.948 12.9209C191.948 13.3102 191.799 13.6322 191.499 13.8867C191.799 14.1413 191.948 14.4482 191.948 14.8076C191.948 15.1969 191.799 15.5189 191.499 15.7734C191.799 16.028 191.948 16.3499 191.948 16.7393C191.948 17.0986 191.799 17.4056 191.499 17.6602C191.799 17.9147 191.948 18.2367 191.948 18.626C191.948 18.9854 191.799 19.2923 191.499 19.5469C191.799 19.8014 191.948 20.1234 191.948 20.5127C191.948 20.8571 191.821 21.1491 191.566 21.3887C191.312 21.6283 191.012 21.748 190.668 21.748C190.324 21.748 190.032 21.6283 189.792 21.3887C189.552 21.1491 189.433 20.8571 189.433 20.5127C189.433 20.0934 189.567 19.7715 189.837 19.5469C189.567 19.3223 189.433 19.0153 189.433 18.626C189.433 18.2067 189.567 17.8848 189.837 17.6602C189.567 17.4355 189.433 17.1286 189.433 16.7393C189.433 16.32 189.567 15.998 189.837 15.7734L189.747 15.6836C189.478 15.9531 189.156 16.0879 188.781 16.0879C188.437 16.0879 188.145 15.9681 187.905 15.7285C187.666 15.4889 187.546 15.182 187.546 14.8076C187.546 14.4632 187.666 14.1712 187.905 13.9316C188.145 13.6921 188.437 13.5723 188.781 13.5723C189.156 13.5723 189.478 13.707 189.747 13.9766L189.837 13.8867C189.567 13.6621 189.433 13.3402 189.433 12.9209C189.433 12.5316 189.567 12.2246 189.837 12C189.567 11.7754 189.433 11.4535 189.433 11.0342C189.433 10.6898 189.552 10.3978 189.792 10.1582C190.032 9.91862 190.324 9.79883 190.668 9.79883C191.012 9.79883 191.312 9.91862 191.566 10.1582C191.821 10.3978 191.948 10.6898 191.948 11.0342C191.948 11.4235 191.799 11.7454 191.499 12C191.799 12.2546 191.948 12.5615 191.948 12.9209ZM179.348 14.2012C178.973 14.2012 178.666 14.0814 178.427 13.8418C178.187 13.6022 178.067 13.2952 178.067 12.9209C178.067 12.5765 178.187 12.2845 178.427 12.0449C178.666 11.8053 178.973 11.6855 179.348 11.6855H186.895C187.239 11.6855 187.531 11.8053 187.771 12.0449C188.01 12.2845 188.13 12.5765 188.13 12.9209C188.13 13.2952 188.01 13.6022 187.771 13.8418C187.531 14.0814 187.239 14.2012 186.895 14.2012H179.348ZM177.416 16.0879C177.072 16.0879 176.78 15.9681 176.54 15.7285C176.3 15.4889 176.181 15.182 176.181 14.8076C176.181 14.4632 176.3 14.1712 176.54 13.9316C176.78 13.6921 177.072 13.5723 177.416 13.5723C177.79 13.5723 178.097 13.6921 178.337 13.9316C178.576 14.1712 178.696 14.4632 178.696 14.8076C178.696 15.182 178.576 15.4889 178.337 15.7285C178.097 15.9681 177.79 16.0879 177.416 16.0879ZM190.668 24.915C191.012 24.915 191.312 25.0423 191.566 25.2969C191.821 25.5365 191.948 25.8285 191.948 26.1729C191.948 26.5622 191.799 26.8841 191.499 27.1387C191.799 27.3932 191.948 27.7002 191.948 28.0596C191.948 28.4489 191.799 28.7708 191.499 29.0254C191.799 29.2799 191.948 29.5869 191.948 29.9463C191.948 30.2907 191.821 30.5902 191.566 30.8447C191.312 31.0993 191.012 31.2266 190.668 31.2266C190.324 31.2266 190.032 31.0993 189.792 30.8447C189.552 30.5902 189.433 30.2907 189.433 29.9463C189.433 29.7217 189.478 29.5195 189.567 29.3398H188.781C188.437 29.3398 188.145 29.2126 187.905 28.958C187.666 28.7035 187.546 28.404 187.546 28.0596C187.546 27.6702 187.681 27.3633 187.95 27.1387C187.681 26.9141 187.546 26.5921 187.546 26.1729C187.546 25.9183 187.591 25.7012 187.681 25.5215H181.234C180.89 25.5215 180.59 25.4017 180.336 25.1621C180.081 24.9225 179.954 24.6305 179.954 24.2861C179.954 24.0915 180.014 23.8743 180.134 23.6348H177.416C177.072 23.6348 176.78 23.515 176.54 23.2754C176.3 23.0358 176.181 22.7438 176.181 22.3994C176.181 22.1299 176.241 21.9128 176.36 21.748H175.529C175.185 21.748 174.893 21.6283 174.653 21.3887C174.414 21.1491 174.294 20.8571 174.294 20.5127C174.294 20.1383 174.429 19.8164 174.698 19.5469C174.429 19.2773 174.294 18.9704 174.294 18.626C174.294 18.2516 174.429 17.9297 174.698 17.6602C174.429 17.3906 174.294 17.0837 174.294 16.7393C174.294 16.3649 174.414 16.0579 174.653 15.8184C174.893 15.5788 175.185 15.459 175.529 15.459C175.889 15.459 176.188 15.5863 176.428 15.8408C176.682 16.0804 176.81 16.3799 176.81 16.7393C176.81 16.904 176.75 17.1061 176.63 17.3457H177.416C177.775 17.3457 178.075 17.473 178.314 17.7275C178.569 17.9671 178.696 18.2666 178.696 18.626C178.696 18.9704 178.562 19.2773 178.292 19.5469C178.562 19.8164 178.696 20.1383 178.696 20.5127C178.696 20.7523 178.636 20.9544 178.517 21.1191H186.895C187.239 21.1191 187.531 21.2464 187.771 21.501C188.01 21.7555 188.13 22.055 188.13 22.3994C188.13 22.654 188.085 22.8711 187.995 23.0508H188.781C189.126 23.0508 189.418 23.1706 189.657 23.4102C189.897 23.6497 190.017 23.9417 190.017 24.2861C190.017 24.5257 189.972 24.7354 189.882 24.915H190.668ZM176.495 32.6641L176.36 32.7988C176.66 33.0534 176.81 33.3604 176.81 33.7197C176.81 34.109 176.66 34.431 176.36 34.6855C176.66 34.9401 176.81 35.262 176.81 35.6514C176.81 35.9958 176.682 36.2878 176.428 36.5273C176.173 36.7669 175.874 36.8867 175.529 36.8867C175.185 36.8867 174.893 36.7669 174.653 36.5273C174.414 36.2878 174.294 35.9958 174.294 35.6514C174.294 35.277 174.429 34.9551 174.698 34.6855C174.429 34.416 174.294 34.0941 174.294 33.7197C174.294 33.3753 174.429 33.0684 174.698 32.7988C174.429 32.5293 174.294 32.2074 174.294 31.833C174.294 31.4886 174.429 31.1816 174.698 30.9121C174.429 30.6426 174.294 30.3206 174.294 29.9463C174.294 29.6019 174.429 29.2949 174.698 29.0254C174.429 28.7559 174.294 28.4339 174.294 28.0596C174.294 27.7152 174.429 27.4082 174.698 27.1387C174.429 26.8691 174.294 26.5472 174.294 26.1729C174.294 25.8285 174.414 25.5365 174.653 25.2969C174.893 25.0423 175.185 24.915 175.529 24.915C175.874 24.915 176.173 25.0423 176.428 25.2969C176.682 25.5365 176.81 25.8285 176.81 26.1729C176.81 26.5622 176.66 26.8841 176.36 27.1387C176.66 27.3932 176.81 27.7002 176.81 28.0596C176.81 28.4489 176.66 28.7708 176.36 29.0254C176.66 29.2799 176.81 29.5869 176.81 29.9463C176.81 30.3356 176.66 30.6576 176.36 30.9121C176.42 30.9421 176.465 30.972 176.495 31.002C176.78 30.7174 177.087 30.5752 177.416 30.5752C177.775 30.5752 178.075 30.7025 178.314 30.957C178.569 31.1966 178.696 31.4886 178.696 31.833C178.696 32.1924 178.569 32.4993 178.314 32.7539C178.075 32.9935 177.775 33.1133 177.416 33.1133C177.057 33.1133 176.75 32.9635 176.495 32.6641ZM187.905 30.957C188.145 30.7025 188.437 30.5752 188.781 30.5752C189.126 30.5752 189.418 30.7025 189.657 30.957C189.897 31.1966 190.017 31.4886 190.017 31.833C190.017 32.1774 189.897 32.4769 189.657 32.7314C189.418 32.986 189.126 33.1133 188.781 33.1133C188.437 33.1133 188.145 32.986 187.905 32.7314C187.666 32.4769 187.546 32.1774 187.546 31.833C187.546 31.4886 187.666 31.1966 187.905 30.957ZM186.895 32.4619C187.239 32.4619 187.531 32.5892 187.771 32.8438C188.01 33.0833 188.13 33.3753 188.13 33.7197C188.13 34.0941 188.01 34.401 187.771 34.6406C187.531 34.8802 187.239 35 186.895 35H179.348C178.973 35 178.666 34.8802 178.427 34.6406C178.187 34.401 178.067 34.0941 178.067 33.7197C178.067 33.3753 178.187 33.0833 178.427 32.8438C178.681 32.5892 178.988 32.4619 179.348 32.4619H186.895Z" fill="#FFE2E2"/>
</svg>
